<svg xmlns="http://www.w3.org/2000/svg" viewBox="0 0 900 545" width="900" height="545">
  <defs>
    <linearGradient id="bgGrad" x1="0%" y1="0%" x2="0%" y2="100%">
      <stop offset="0%" stop-color="#141416"/>
      <stop offset="100%" stop-color="#141416"/>
    </linearGradient>
    <filter id="glow">
      <feGaussianBlur stdDeviation="3" result="coloredBlur"/>
      <feMerge>
        <feMergeNode in="coloredBlur"/>
        <feMergeNode in="SourceGraphic"/>
      </feMerge>
    </filter>
    <filter id="glowSoft">
      <feGaussianBlur stdDeviation="2" result="coloredBlur"/>
      <feMerge>
        <feMergeNode in="coloredBlur"/>
        <feMergeNode in="SourceGraphic"/>
      </feMerge>
    </filter>
  </defs>

  <!-- Background -->
  <rect width="900" height="545" fill="url(#bgGrad)" rx="12"/>

  <!-- Title -->
  <text x="450" y="38" text-anchor="middle" fill="#00CEC9" font-family="Segoe UI, Arial, sans-serif" font-size="20" font-weight="bold" letter-spacing="1.5">ALIASING</text>
  <text x="450" y="58" text-anchor="middle" fill="#6c7a89" font-family="Segoe UI, Arial, sans-serif" font-size="12" letter-spacing="1">When Frequencies Above the Nyquist Limit Fold Back</text>

  <!-- Grid lines -->
  <g stroke="#2a2a3a" stroke-width="0.5" opacity="0.5">
    <line x1="80" y1="160" x2="840" y2="160"/>
    <line x1="80" y1="200" x2="840" y2="200"/>
    <line x1="80" y1="240" x2="840" y2="240" stroke-width="0.8" opacity="0.7"/>
    <line x1="80" y1="280" x2="840" y2="280"/>
    <line x1="80" y1="320" x2="840" y2="320"/>
  </g>

  <!-- Axes -->
  <line x1="80" y1="110" x2="80" y2="370" stroke="#3a3a4a" stroke-width="1"/>
  <line x1="80" y1="240" x2="850" y2="240" stroke="#3a3a4a" stroke-width="1"/>
  <polygon points="850,240 843,236 843,244" fill="#3a3a4a"/>

  <!-- Axis labels -->
  <text x="70" y="164" text-anchor="end" fill="#6c7a89" font-family="Segoe UI, Arial, sans-serif" font-size="10">+V</text>
  <text x="70" y="244" text-anchor="end" fill="#6c7a89" font-family="Segoe UI, Arial, sans-serif" font-size="10">0</text>
  <text x="70" y="324" text-anchor="end" fill="#6c7a89" font-family="Segoe UI, Arial, sans-serif" font-size="10">−V</text>
  <text x="855" y="244" fill="#6c7a89" font-family="Segoe UI, Arial, sans-serif" font-size="11">time</text>
  <text x="40" y="240" text-anchor="middle" fill="#6c7a89" font-family="Segoe UI, Arial, sans-serif" font-size="11" transform="rotate(-90, 40, 240)">voltage</text>

  <!-- 30 kHz REAL SIGNAL (high frequency, dashed red) -->
  <g filter="url(#glowSoft)">
    <path d="M 100.0,240.0 L 100.4,237.4 L 100.7,234.9 L 101.1,232.3 L 101.4,229.8 L 101.8,227.2 L 102.2,224.7 L 102.5,222.2 L 102.9,219.7 L 103.2,217.2 L 103.6,214.8 L 104.0,212.4 L 104.3,210.0 L 104.7,207.6 L 105.0,205.3 L 105.4,203.0 L 105.8,200.7 L 106.1,198.5 L 106.5,196.3 L 106.8,194.2 L 107.2,192.1 L 107.6,190.1 L 107.9,188.1 L 108.3,186.2 L 108.6,184.3 L 109.0,182.5 L 109.4,180.8 L 109.7,179.1 L 110.1,177.4 L 110.4,175.9 L 110.8,174.4 L 111.2,172.9 L 111.5,171.6 L 111.9,170.3 L 112.2,169.1 L 112.6,167.9 L 113.0,166.8 L 113.3,165.8 L 113.7,164.9 L 114.0,164.1 L 114.4,163.3 L 114.8,162.6 L 115.1,162.0 L 115.5,161.5 L 115.8,161.0 L 116.2,160.6 L 116.6,160.4 L 116.9,160.2 L 117.3,160.0 L 117.6,160.0 L 118.0,160.0 L 118.4,160.2 L 118.7,160.4 L 119.1,160.7 L 119.4,161.0 L 119.8,161.5 L 120.2,162.0 L 120.5,162.6 L 120.9,163.3 L 121.3,164.1 L 121.6,164.9 L 122.0,165.9 L 122.3,166.9 L 122.7,168.0 L 123.1,169.1 L 123.4,170.3 L 123.8,171.6 L 124.1,173.0 L 124.5,174.4 L 124.9,175.9 L 125.2,177.5 L 125.6,179.1 L 125.9,180.8 L 126.3,182.6 L 126.7,184.4 L 127.0,186.3 L 127.4,188.2 L 127.7,190.2 L 128.1,192.2 L 128.5,194.3 L 128.8,196.4 L 129.2,198.6 L 129.5,200.8 L 129.9,203.1 L 130.3,205.4 L 130.6,207.7 L 131.0,210.1 L 131.3,212.5 L 131.7,214.9 L 132.1,217.3 L 132.4,219.8 L 132.8,222.3 L 133.1,224.8 L 133.5,227.3 L 133.9,229.9 L 134.2,232.4 L 134.6,235.0 L 134.9,237.6 L 135.3,240.1 L 135.7,242.7 L 136.0,245.3 L 136.4,247.8 L 136.7,250.4 L 137.1,252.9 L 137.5,255.4 L 137.8,257.9 L 138.2,260.4 L 138.5,262.9 L 138.9,265.3 L 139.3,267.8 L 139.6,270.2 L 140.0,272.5 L 140.3,274.8 L 140.7,277.1 L 141.1,279.4 L 141.4,281.6 L 141.8,283.8 L 142.1,285.9 L 142.5,288.0 L 142.9,290.0 L 143.2,292.0 L 143.6,293.9 L 143.9,295.8 L 144.3,297.6 L 144.7,299.3 L 145.0,301.0 L 145.4,302.6 L 145.7,304.2 L 146.1,305.7 L 146.5,307.1 L 146.8,308.5 L 147.2,309.8 L 147.5,311.0 L 147.9,312.2 L 148.3,313.2 L 148.6,314.2 L 149.0,315.1 L 149.3,316.0 L 149.7,316.7 L 150.1,317.4 L 150.4,318.0 L 150.8,318.6 L 151.1,319.0 L 151.5,319.4 L 151.9,319.6 L 152.2,319.8 L 152.6,320.0 L 152.9,320.0 L 153.3,320.0 L 153.7,319.8 L 154.0,319.6 L 154.4,319.3 L 154.7,318.9 L 155.1,318.5 L 155.5,318.0 L 155.8,317.3 L 156.2,316.6 L 156.5,315.9 L 156.9,315.0 L 157.3,314.1 L 157.6,313.1 L 158.0,312.0 L 158.3,310.8 L 158.7,309.6 L 159.1,308.3 L 159.4,306.9 L 159.8,305.5 L 160.2,304.0 L 160.5,302.4 L 160.9,300.8 L 161.2,299.1 L 161.6,297.3 L 162.0,295.5 L 162.3,293.6 L 162.7,291.7 L 163.0,289.7 L 163.4,287.7 L 163.8,285.6 L 164.1,283.5 L 164.5,281.3 L 164.8,279.1 L 165.2,276.8 L 165.6,274.5 L 165.9,272.2 L 166.3,269.8 L 166.6,267.4 L 167.0,265.0 L 167.4,262.5 L 167.7,260.1 L 168.1,257.6 L 168.4,255.1 L 168.8,252.5 L 169.2,250.0 L 169.5,247.4 L 169.9,244.9 L 170.2,242.3 L 170.6,239.7 L 171.0,237.2 L 171.3,234.6 L 171.7,232.1 L 172.0,229.5 L 172.4,227.0 L 172.8,224.5 L 173.1,221.9 L 173.5,219.5 L 173.8,217.0 L 174.2,214.5 L 174.6,212.1 L 174.9,209.7 L 175.3,207.4 L 175.6,205.0 L 176.0,202.8 L 176.4,200.5 L 176.7,198.3 L 177.1,196.1 L 177.4,194.0 L 177.8,191.9 L 178.2,189.9 L 178.5,187.9 L 178.9,186.0 L 179.2,184.1 L 179.6,182.3 L 180.0,180.6 L 180.3,178.9 L 180.7,177.3 L 181.0,175.7 L 181.4,174.2 L 181.8,172.8 L 182.1,171.4 L 182.5,170.2 L 182.8,168.9 L 183.2,167.8 L 183.6,166.7 L 183.9,165.7 L 184.3,164.8 L 184.6,164.0 L 185.0,163.2 L 185.4,162.5 L 185.7,161.9 L 186.1,161.4 L 186.4,161.0 L 186.8,160.6 L 187.2,160.3 L 187.5,160.1 L 187.9,160.0 L 188.2,160.0 L 188.6,160.1 L 189.0,160.2 L 189.3,160.4 L 189.7,160.7 L 190.0,161.1 L 190.4,161.5 L 190.8,162.1 L 191.1,162.7 L 191.5,163.4 L 191.8,164.2 L 192.2,165.0 L 192.6,166.0 L 192.9,167.0 L 193.3,168.1 L 193.6,169.2 L 194.0,170.5 L 194.4,171.8 L 194.7,173.1 L 195.1,174.6 L 195.4,176.1 L 195.8,177.7 L 196.2,179.3 L 196.5,181.0 L 196.9,182.8 L 197.2,184.6 L 197.6,186.5 L 198.0,188.4 L 198.3,190.4 L 198.7,192.4 L 199.0,194.5 L 199.4,196.7 L 199.8,198.8 L 200.1,201.1 L 200.5,203.3 L 200.9,205.6 L 201.2,207.9 L 201.6,210.3 L 201.9,212.7 L 202.3,215.1 L 202.7,217.6 L 203.0,220.1 L 203.4,222.6 L 203.7,225.1 L 204.1,227.6 L 204.5,230.1 L 204.8,232.7 L 205.2,235.2 L 205.5,237.8 L 205.9,240.4 L 206.3,242.9 L 206.6,245.5 L 207.0,248.1 L 207.3,250.6 L 207.7,253.1 L 208.1,255.7 L 208.4,258.2 L 208.8,260.7 L 209.1,263.1 L 209.5,265.6 L 209.9,268.0 L 210.2,270.4 L 210.6,272.7 L 210.9,275.1 L 211.3,277.4 L 211.7,279.6 L 212.0,281.8 L 212.4,284.0 L 212.7,286.1 L 213.1,288.2 L 213.5,290.2 L 213.8,292.2 L 214.2,294.1 L 214.5,295.9 L 214.9,297.8 L 215.3,299.5 L 215.6,301.2 L 216.0,302.8 L 216.3,304.4 L 216.7,305.9 L 217.1,307.3 L 217.4,308.6 L 217.8,309.9 L 218.1,311.1 L 218.5,312.3 L 218.9,313.3 L 219.2,314.3 L 219.6,315.2 L 219.9,316.1 L 220.3,316.8 L 220.7,317.5 L 221.0,318.1 L 221.4,318.6 L 221.7,319.0 L 222.1,319.4 L 222.5,319.7 L 222.8,319.9 L 223.2,320.0 L 223.5,320.0 L 223.9,319.9 L 224.3,319.8 L 224.6,319.6 L 225.0,319.3 L 225.3,318.9 L 225.7,318.4 L 226.1,317.9 L 226.4,317.3 L 226.8,316.6 L 227.1,315.8 L 227.5,314.9 L 227.9,314.0 L 228.2,313.0 L 228.6,311.9 L 228.9,310.7 L 229.3,309.5 L 229.7,308.2 L 230.0,306.8 L 230.4,305.3 L 230.7,303.8 L 231.1,302.3 L 231.5,300.6 L 231.8,298.9 L 232.2,297.1 L 232.5,295.3 L 232.9,293.4 L 233.3,291.5 L 233.6,289.5 L 234.0,287.5 L 234.3,285.4 L 234.7,283.2 L 235.1,281.1 L 235.4,278.8 L 235.8,276.6 L 236.1,274.3 L 236.5,271.9 L 236.9,269.6 L 237.2,267.2 L 237.6,264.7 L 237.9,262.3 L 238.3,259.8 L 238.7,257.3 L 239.0,254.8 L 239.4,252.3 L 239.7,249.7 L 240.1,247.2 L 240.5,244.6 L 240.8,242.1 L 241.2,239.5 L 241.6,236.9 L 241.9,234.4 L 242.3,231.8 L 242.6,229.3 L 243.0,226.7 L 243.4,224.2 L 243.7,221.7 L 244.1,219.2 L 244.4,216.7 L 244.8,214.3 L 245.2,211.9 L 245.5,209.5 L 245.9,207.1 L 246.2,204.8 L 246.6,202.5 L 247.0,200.3 L 247.3,198.1 L 247.7,195.9 L 248.0,193.8 L 248.4,191.7 L 248.8,189.7 L 249.1,187.7 L 249.5,185.8 L 249.8,184.0 L 250.2,182.2 L 250.6,180.4 L 250.9,178.7 L 251.3,177.1 L 251.6,175.6 L 252.0,174.1 L 252.4,172.7 L 252.7,171.3 L 253.1,170.0 L 253.4,168.8 L 253.8,167.7 L 254.2,166.6 L 254.5,165.6 L 254.9,164.7 L 255.2,163.9 L 255.6,163.2 L 256.0,162.5 L 256.3,161.9 L 256.7,161.4 L 257.0,160.9 L 257.4,160.6 L 257.8,160.3 L 258.1,160.1 L 258.5,160.0 L 258.8,160.0 L 259.2,160.1 L 259.6,160.2 L 259.9,160.4 L 260.3,160.7 L 260.6,161.1 L 261.0,161.6 L 261.4,162.1 L 261.7,162.8 L 262.1,163.5 L 262.4,164.3 L 262.8,165.1 L 263.2,166.1 L 263.5,167.1 L 263.9,168.2 L 264.2,169.3 L 264.6,170.6 L 265.0,171.9 L 265.3,173.3 L 265.7,174.7 L 266.0,176.2 L 266.4,177.8 L 266.8,179.5 L 267.1,181.2 L 267.5,182.9 L 267.8,184.8 L 268.2,186.7 L 268.6,188.6 L 268.9,190.6 L 269.3,192.6 L 269.6,194.7 L 270.0,196.9 L 270.4,199.0 L 270.7,201.3 L 271.1,203.5 L 271.4,205.8 L 271.8,208.2 L 272.2,210.5 L 272.5,212.9 L 272.9,215.4 L 273.2,217.8 L 273.6,220.3 L 274.0,222.8 L 274.3,225.3 L 274.7,227.8 L 275.0,230.4 L 275.4,232.9 L 275.8,235.5 L 276.1,238.1 L 276.5,240.6 L 276.8,243.2 L 277.2,245.8 L 277.6,248.3 L 277.9,250.9 L 278.3,253.4 L 278.6,255.9 L 279.0,258.4 L 279.4,260.9 L 279.7,263.4 L 280.1,265.8 L 280.5,268.2 L 280.8,270.6 L 281.2,273.0 L 281.5,275.3 L 281.9,277.6 L 282.3,279.8 L 282.6,282.0 L 283.0,284.2 L 283.3,286.3 L 283.7,288.4 L 284.1,290.4 L 284.4,292.4 L 284.8,294.3 L 285.1,296.1 L 285.5,297.9 L 285.9,299.7 L 286.2,301.3 L 286.6,303.0 L 286.9,304.5 L 287.3,306.0 L 287.7,307.4 L 288.0,308.8 L 288.4,310.0 L 288.7,311.2 L 289.1,312.4 L 289.5,313.4 L 289.8,314.4 L 290.2,315.3 L 290.5,316.1 L 290.9,316.9 L 291.3,317.6 L 291.6,318.1 L 292.0,318.7 L 292.3,319.1 L 292.7,319.4 L 293.1,319.7 L 293.4,319.9 L 293.8,320.0 L 294.1,320.0 L 294.5,319.9 L 294.9,319.8 L 295.2,319.6 L 295.6,319.3 L 295.9,318.9 L 296.3,318.4 L 296.7,317.8 L 297.0,317.2 L 297.4,316.5 L 297.7,315.7 L 298.1,314.8 L 298.5,313.9 L 298.8,312.9 L 299.2,311.8 L 299.5,310.6 L 299.9,309.4 L 300.3,308.0 L 300.6,306.7 L 301.0,305.2 L 301.3,303.7 L 301.7,302.1 L 302.1,300.4 L 302.4,298.7 L 302.8,297.0 L 303.1,295.1 L 303.5,293.2 L 303.9,291.3 L 304.2,289.3 L 304.6,287.3 L 304.9,285.2 L 305.3,283.0 L 305.7,280.8 L 306.0,278.6 L 306.4,276.3 L 306.7,274.0 L 307.1,271.7 L 307.5,269.3 L 307.8,266.9 L 308.2,264.5 L 308.5,262.0 L 308.9,259.6 L 309.3,257.1 L 309.6,254.6 L 310.0,252.0 L 310.3,249.5 L 310.7,246.9 L 311.1,244.4 L 311.4,241.8 L 311.8,239.2 L 312.1,236.7 L 312.5,234.1 L 312.9,231.6 L 313.2,229.0 L 313.6,226.5 L 313.9,224.0 L 314.3,221.5 L 314.7,219.0 L 315.0,216.5 L 315.4,214.1 L 315.7,211.7 L 316.1,209.3 L 316.5,206.9 L 316.8,204.6 L 317.2,202.3 L 317.5,200.1 L 317.9,197.9 L 318.3,195.7 L 318.6,193.6 L 319.0,191.5 L 319.3,189.5 L 319.7,187.5 L 320.1,185.6 L 320.4,183.8 L 320.8,182.0 L 321.2,180.3 L 321.5,178.6 L 321.9,177.0 L 322.2,175.4 L 322.6,173.9 L 323.0,172.5 L 323.3,171.2 L 323.7,169.9 L 324.0,168.7 L 324.4,167.6 L 324.8,166.5 L 325.1,165.5 L 325.5,164.6 L 325.8,163.8 L 326.2,163.1 L 326.6,162.4 L 326.9,161.8 L 327.3,161.3 L 327.6,160.9 L 328.0,160.6 L 328.4,160.3 L 328.7,160.1 L 329.1,160.0 L 329.4,160.0 L 329.8,160.1 L 330.2,160.2 L 330.5,160.5 L 330.9,160.8 L 331.2,161.2 L 331.6,161.6 L 332.0,162.2 L 332.3,162.8 L 332.7,163.5 L 333.0,164.3 L 333.4,165.2 L 333.8,166.2 L 334.1,167.2 L 334.5,168.3 L 334.8,169.5 L 335.2,170.7 L 335.6,172.0 L 335.9,173.4 L 336.3,174.9 L 336.6,176.4 L 337.0,178.0 L 337.4,179.6 L 337.7,181.4 L 338.1,183.1 L 338.4,185.0 L 338.8,186.8 L 339.2,188.8 L 339.5,190.8 L 339.9,192.8 L 340.2,194.9 L 340.6,197.1 L 341.0,199.3 L 341.3,201.5 L 341.7,203.8 L 342.0,206.1 L 342.4,208.4 L 342.8,210.8 L 343.1,213.2 L 343.5,215.6 L 343.8,218.1 L 344.2,220.6 L 344.6,223.0 L 344.9,225.6 L 345.3,228.1 L 345.6,230.6 L 346.0,233.2 L 346.4,235.8 L 346.7,238.3 L 347.1,240.9 L 347.4,243.4 L 347.8,246.0 L 348.2,248.6 L 348.5,251.1 L 348.9,253.6 L 349.2,256.2 L 349.6,258.7 L 350.0,261.2 L 350.3,263.6 L 350.7,266.1 L 351.0,268.5 L 351.4,270.8 L 351.8,273.2 L 352.1,275.5 L 352.5,277.8 L 352.8,280.0 L 353.2,282.2 L 353.6,284.4 L 353.9,286.5 L 354.3,288.6 L 354.6,290.6 L 355.0,292.5 L 355.4,294.5 L 355.7,296.3 L 356.1,298.1 L 356.4,299.8 L 356.8,301.5 L 357.2,303.1 L 357.5,304.7 L 357.9,306.1 L 358.2,307.5 L 358.6,308.9 L 359.0,310.2 L 359.3,311.4 L 359.7,312.5 L 360.1,313.5 L 360.4,314.5 L 360.8,315.4 L 361.1,316.2 L 361.5,317.0 L 361.9,317.6 L 362.2,318.2 L 362.6,318.7 L 362.9,319.1 L 363.3,319.5 L 363.7,319.7 L 364.0,319.9 L 364.4,320.0 L 364.7,320.0 L 365.1,319.9 L 365.5,319.8 L 365.8,319.5 L 366.2,319.2 L 366.5,318.8 L 366.9,318.3 L 367.3,317.8 L 367.6,317.1 L 368.0,316.4 L 368.3,315.6 L 368.7,314.7 L 369.1,313.8 L 369.4,312.8 L 369.8,311.7 L 370.1,310.5 L 370.5,309.2 L 370.9,307.9 L 371.2,306.5 L 371.6,305.1 L 371.9,303.5 L 372.3,301.9 L 372.7,300.3 L 373.0,298.6 L 373.4,296.8 L 373.7,295.0 L 374.1,293.1 L 374.5,291.1 L 374.8,289.1 L 375.2,287.1 L 375.5,285.0 L 375.9,282.8 L 376.3,280.6 L 376.6,278.4 L 377.0,276.1 L 377.3,273.8 L 377.7,271.5 L 378.1,269.1 L 378.4,266.7 L 378.8,264.3 L 379.1,261.8 L 379.5,259.3 L 379.9,256.8 L 380.2,254.3 L 380.6,251.8 L 380.9,249.2 L 381.3,246.7 L 381.7,244.1 L 382.0,241.6 L 382.4,239.0 L 382.7,236.4 L 383.1,233.9 L 383.5,231.3 L 383.8,228.8 L 384.2,226.2 L 384.5,223.7 L 384.9,221.2 L 385.3,218.7 L 385.6,216.3 L 386.0,213.8 L 386.3,211.4 L 386.7,209.0 L 387.1,206.7 L 387.4,204.4 L 387.8,202.1 L 388.1,199.9 L 388.5,197.7 L 388.9,195.5 L 389.2,193.4 L 389.6,191.3 L 389.9,189.3 L 390.3,187.4 L 390.7,185.5 L 391.0,183.6 L 391.4,181.8 L 391.7,180.1 L 392.1,178.4 L 392.5,176.8 L 392.8,175.3 L 393.2,173.8 L 393.5,172.4 L 393.9,171.1 L 394.3,169.8 L 394.6,168.6 L 395.0,167.5 L 395.3,166.4 L 395.7,165.5 L 396.1,164.6 L 396.4,163.7 L 396.8,163.0 L 397.1,162.4 L 397.5,161.8 L 397.9,161.3 L 398.2,160.9 L 398.6,160.5 L 398.9,160.3 L 399.3,160.1 L 399.7,160.0 L 400.0,160.0 L 400.4,160.1 L 400.8,160.2 L 401.1,160.5 L 401.5,160.8 L 401.8,161.2 L 402.2,161.7 L 402.6,162.3 L 402.9,162.9 L 403.3,163.6 L 403.6,164.4 L 404.0,165.3 L 404.4,166.3 L 404.7,167.3 L 405.1,168.4 L 405.4,169.6 L 405.8,170.8 L 406.2,172.2 L 406.5,173.6 L 406.9,175.0 L 407.2,176.5 L 407.6,178.1 L 408.0,179.8 L 408.3,181.5 L 408.7,183.3 L 409.0,185.1 L 409.4,187.0 L 409.8,189.0 L 410.1,191.0 L 410.5,193.0 L 410.8,195.1 L 411.2,197.3 L 411.6,199.5 L 411.9,201.7 L 412.3,204.0 L 412.6,206.3 L 413.0,208.6 L 413.4,211.0 L 413.7,213.4 L 414.1,215.9 L 414.4,218.3 L 414.8,220.8 L 415.2,223.3 L 415.5,225.8 L 415.9,228.3 L 416.2,230.9 L 416.6,233.4 L 417.0,236.0 L 417.3,238.6 L 417.7,241.1 L 418.0,243.7 L 418.4,246.3 L 418.8,248.8 L 419.1,251.4 L 419.5,253.9 L 419.8,256.4 L 420.2,258.9 L 420.6,261.4 L 420.9,263.9 L 421.3,266.3 L 421.6,268.7 L 422.0,271.1 L 422.4,273.4 L 422.7,275.7 L 423.1,278.0 L 423.4,280.3 L 423.8,282.5 L 424.2,284.6 L 424.5,286.7 L 424.9,288.8 L 425.2,290.8 L 425.6,292.7 L 426.0,294.6 L 426.3,296.5 L 426.7,298.3 L 427.0,300.0 L 427.4,301.7 L 427.8,303.3 L 428.1,304.8 L 428.5,306.3 L 428.8,307.7 L 429.2,309.0 L 429.6,310.3 L 429.9,311.5 L 430.3,312.6 L 430.6,313.6 L 431.0,314.6 L 431.4,315.5 L 431.7,316.3 L 432.1,317.0 L 432.4,317.7 L 432.8,318.2 L 433.2,318.7 L 433.5,319.2 L 433.9,319.5 L 434.2,319.7 L 434.6,319.9 L 435.0,320.0 L 435.3,320.0 L 435.7,319.9 L 436.0,319.8 L 436.4,319.5 L 436.8,319.2 L 437.1,318.8 L 437.5,318.3 L 437.8,317.7 L 438.2,317.1 L 438.6,316.3 L 438.9,315.5 L 439.3,314.7 L 439.6,313.7 L 440.0,312.7 L 440.4,311.5 L 440.7,310.4 L 441.1,309.1 L 441.5,307.8 L 441.8,306.4 L 442.2,304.9 L 442.5,303.4 L 442.9,301.8 L 443.3,300.1 L 443.6,298.4 L 444.0,296.6 L 444.3,294.8 L 444.7,292.9 L 445.1,290.9 L 445.4,288.9 L 445.8,286.9 L 446.1,284.8 L 446.5,282.6 L 446.9,280.4 L 447.2,278.2 L 447.6,275.9 L 447.9,273.6 L 448.3,271.2 L 448.7,268.9 L 449.0,266.5 L 449.4,264.0 L 449.7,261.6 L 450.1,259.1 L 450.5,256.6 L 450.8,254.1 L 451.2,251.5 L 451.5,249.0 L 451.9,246.4 L 452.3,243.9 L 452.6,241.3 L 453.0,238.7 L 453.3,236.2 L 453.7,233.6 L 454.1,231.1 L 454.4,228.5 L 454.8,226.0 L 455.1,223.5 L 455.5,221.0 L 455.9,218.5 L 456.2,216.0 L 456.6,213.6 L 456.9,211.2 L 457.3,208.8 L 457.7,206.5 L 458.0,204.1 L 458.4,201.9 L 458.7,199.6 L 459.1,197.4 L 459.5,195.3 L 459.8,193.2 L 460.2,191.1 L 460.5,189.1 L 460.9,187.2 L 461.3,185.3 L 461.6,183.4 L 462.0,181.6 L 462.3,179.9 L 462.7,178.3 L 463.1,176.7 L 463.4,175.1 L 463.8,173.7 L 464.1,172.3 L 464.5,170.9 L 464.9,169.7 L 465.2,168.5 L 465.6,167.4 L 465.9,166.3 L 466.3,165.4 L 466.7,164.5 L 467.0,163.7 L 467.4,162.9 L 467.7,162.3 L 468.1,161.7 L 468.5,161.2 L 468.8,160.8 L 469.2,160.5 L 469.5,160.3 L 469.9,160.1 L 470.3,160.0 L 470.6,160.0 L 471.0,160.1 L 471.3,160.3 L 471.7,160.5 L 472.1,160.8 L 472.4,161.2 L 472.8,161.7 L 473.1,162.3 L 473.5,163.0 L 473.9,163.7 L 474.2,164.5 L 474.6,165.4 L 474.9,166.4 L 475.3,167.4 L 475.7,168.5 L 476.0,169.7 L 476.4,171.0 L 476.7,172.3 L 477.1,173.7 L 477.5,175.2 L 477.8,176.7 L 478.2,178.3 L 478.5,180.0 L 478.9,181.7 L 479.3,183.5 L 479.6,185.3 L 480.0,187.2 L 480.4,189.2 L 480.7,191.2 L 481.1,193.2 L 481.4,195.4 L 481.8,197.5 L 482.2,199.7 L 482.5,201.9 L 482.9,204.2 L 483.2,206.5 L 483.6,208.9 L 484.0,211.3 L 484.3,213.7 L 484.7,216.1 L 485.0,218.6 L 485.4,221.0 L 485.8,223.5 L 486.1,226.1 L 486.5,228.6 L 486.8,231.1 L 487.2,233.7 L 487.6,236.3 L 487.9,238.8 L 488.3,241.4 L 488.6,243.9 L 489.0,246.5 L 489.4,249.1 L 489.7,251.6 L 490.1,254.1 L 490.4,256.7 L 490.8,259.2 L 491.2,261.6 L 491.5,264.1 L 491.9,266.5 L 492.2,268.9 L 492.6,271.3 L 493.0,273.7 L 493.3,276.0 L 493.7,278.2 L 494.0,280.5 L 494.4,282.7 L 494.8,284.8 L 495.1,286.9 L 495.5,289.0 L 495.8,291.0 L 496.2,292.9 L 496.6,294.8 L 496.9,296.7 L 497.3,298.4 L 497.6,300.2 L 498.0,301.8 L 498.4,303.4 L 498.7,305.0 L 499.1,306.4 L 499.4,307.8 L 499.8,309.1 L 500.2,310.4 L 500.5,311.6 L 500.9,312.7 L 501.2,313.7 L 501.6,314.7 L 502.0,315.6 L 502.3,316.4 L 502.7,317.1 L 503.0,317.7 L 503.4,318.3 L 503.8,318.8 L 504.1,319.2 L 504.5,319.5 L 504.8,319.8 L 505.2,319.9 L 505.6,320.0 L 505.9,320.0 L 506.3,319.9 L 506.6,319.7 L 507.0,319.5 L 507.4,319.1 L 507.7,318.7 L 508.1,318.2 L 508.4,317.7 L 508.8,317.0 L 509.2,316.3 L 509.5,315.5 L 509.9,314.6 L 510.2,313.6 L 510.6,312.5 L 511.0,311.4 L 511.3,310.2 L 511.7,309.0 L 512.0,307.6 L 512.4,306.2 L 512.8,304.8 L 513.1,303.2 L 513.5,301.6 L 513.8,299.9 L 514.2,298.2 L 514.6,296.4 L 514.9,294.6 L 515.3,292.7 L 515.6,290.7 L 516.0,288.7 L 516.4,286.7 L 516.7,284.5 L 517.1,282.4 L 517.4,280.2 L 517.8,278.0 L 518.2,275.7 L 518.5,273.4 L 518.9,271.0 L 519.2,268.6 L 519.6,266.2 L 520.0,263.8 L 520.3,261.3 L 520.7,258.8 L 521.1,256.3 L 521.4,253.8 L 521.8,251.3 L 522.1,248.7 L 522.5,246.2 L 522.9,243.6 L 523.2,241.1 L 523.6,238.5 L 523.9,235.9 L 524.3,233.4 L 524.7,230.8 L 525.0,228.3 L 525.4,225.7 L 525.7,223.2 L 526.1,220.7 L 526.5,218.2 L 526.8,215.8 L 527.2,213.4 L 527.5,210.9 L 527.9,208.6 L 528.3,206.2 L 528.6,203.9 L 529.0,201.6 L 529.3,199.4 L 529.7,197.2 L 530.1,195.1 L 530.4,193.0 L 530.8,190.9 L 531.1,188.9 L 531.5,187.0 L 531.9,185.1 L 532.2,183.2 L 532.6,181.5 L 532.9,179.8 L 533.3,178.1 L 533.7,176.5 L 534.0,175.0 L 534.4,173.5 L 534.7,172.1 L 535.1,170.8 L 535.5,169.5 L 535.8,168.4 L 536.2,167.3 L 536.5,166.2 L 536.9,165.3 L 537.3,164.4 L 537.6,163.6 L 538.0,162.9 L 538.3,162.2 L 538.7,161.7 L 539.1,161.2 L 539.4,160.8 L 539.8,160.5 L 540.1,160.2 L 540.5,160.1 L 540.9,160.0 L 541.2,160.0 L 541.6,160.1 L 541.9,160.3 L 542.3,160.5 L 542.7,160.9 L 543.0,161.3 L 543.4,161.8 L 543.7,162.4 L 544.1,163.0 L 544.5,163.8 L 544.8,164.6 L 545.2,165.5 L 545.5,166.5 L 545.9,167.5 L 546.3,168.6 L 546.6,169.8 L 547.0,171.1 L 547.3,172.4 L 547.7,173.8 L 548.1,175.3 L 548.4,176.9 L 548.8,178.5 L 549.1,180.1 L 549.5,181.9 L 549.9,183.7 L 550.2,185.5 L 550.6,187.4 L 550.9,189.4 L 551.3,191.4 L 551.7,193.5 L 552.0,195.6 L 552.4,197.7 L 552.7,199.9 L 553.1,202.2 L 553.5,204.4 L 553.8,206.8 L 554.2,209.1 L 554.5,211.5 L 554.9,213.9 L 555.3,216.3 L 555.6,218.8 L 556.0,221.3 L 556.3,223.8 L 556.7,226.3 L 557.1,228.8 L 557.4,231.4 L 557.8,233.9 L 558.1,236.5 L 558.5,239.1 L 558.9,241.6 L 559.2,244.2 L 559.6,246.8 L 559.9,249.3 L 560.3,251.9 L 560.7,254.4 L 561.0,256.9 L 561.4,259.4 L 561.8,261.9 L 562.1,264.3 L 562.5,266.8 L 562.8,269.2 L 563.2,271.5 L 563.6,273.9 L 563.9,276.2 L 564.3,278.5 L 564.6,280.7 L 565.0,282.9 L 565.4,285.0 L 565.7,287.1 L 566.1,289.2 L 566.4,291.2 L 566.8,293.1 L 567.2,295.0 L 567.5,296.8 L 567.9,298.6 L 568.2,300.3 L 568.6,302.0 L 569.0,303.6 L 569.3,305.1 L 569.7,306.6 L 570.0,307.9 L 570.4,309.3 L 570.8,310.5 L 571.1,311.7 L 571.5,312.8 L 571.8,313.8 L 572.2,314.8 L 572.6,315.6 L 572.9,316.4 L 573.3,317.2 L 573.6,317.8 L 574.0,318.4 L 574.4,318.8 L 574.7,319.2 L 575.1,319.5 L 575.4,319.8 L 575.8,319.9 L 576.2,320.0 L 576.5,320.0 L 576.9,319.9 L 577.2,319.7 L 577.6,319.4 L 578.0,319.1 L 578.3,318.7 L 578.7,318.2 L 579.0,317.6 L 579.4,316.9 L 579.8,316.2 L 580.1,315.4 L 580.5,314.5 L 580.8,313.5 L 581.2,312.4 L 581.6,311.3 L 581.9,310.1 L 582.3,308.8 L 582.6,307.5 L 583.0,306.1 L 583.4,304.6 L 583.7,303.1 L 584.1,301.5 L 584.4,299.8 L 584.8,298.0 L 585.2,296.3 L 585.5,294.4 L 585.9,292.5 L 586.2,290.5 L 586.6,288.5 L 587.0,286.4 L 587.3,284.3 L 587.7,282.2 L 588.0,280.0 L 588.4,277.7 L 588.8,275.5 L 589.1,273.1 L 589.5,270.8 L 589.8,268.4 L 590.2,266.0 L 590.6,263.5 L 590.9,261.1 L 591.3,258.6 L 591.6,256.1 L 592.0,253.6 L 592.4,251.0 L 592.7,248.5 L 593.1,245.9 L 593.4,243.4 L 593.8,240.8 L 594.2,238.2 L 594.5,235.7 L 594.9,233.1 L 595.2,230.6 L 595.6,228.0 L 596.0,225.5 L 596.3,223.0 L 596.7,220.5 L 597.0,218.0 L 597.4,215.5 L 597.8,213.1 L 598.1,210.7 L 598.5,208.3 L 598.8,206.0 L 599.2,203.7 L 599.6,201.4 L 599.9,199.2 L 600.3,197.0 L 600.7,194.9 L 601.0,192.8 L 601.4,190.7 L 601.7,188.7 L 602.1,186.8 L 602.5,184.9 L 602.8,183.1 L 603.2,181.3 L 603.5,179.6 L 603.9,177.9 L 604.3,176.3 L 604.6,174.8 L 605.0,173.4 L 605.3,172.0 L 605.7,170.7 L 606.1,169.4 L 606.4,168.3 L 606.8,167.2 L 607.1,166.1 L 607.5,165.2 L 607.9,164.3 L 608.2,163.5 L 608.6,162.8 L 608.9,162.2 L 609.3,161.6 L 609.7,161.1 L 610.0,160.8 L 610.4,160.4 L 610.7,160.2 L 611.1,160.1 L 611.5,160.0 L 611.8,160.0 L 612.2,160.1 L 612.5,160.3 L 612.9,160.6 L 613.3,160.9 L 613.6,161.3 L 614.0,161.8 L 614.3,162.4 L 614.7,163.1 L 615.1,163.8 L 615.4,164.7 L 615.8,165.6 L 616.1,166.6 L 616.5,167.6 L 616.9,168.7 L 617.2,169.9 L 617.6,171.2 L 617.9,172.6 L 618.3,174.0 L 618.7,175.5 L 619.0,177.0 L 619.4,178.6 L 619.7,180.3 L 620.1,182.0 L 620.5,183.8 L 620.8,185.7 L 621.2,187.6 L 621.5,189.6 L 621.9,191.6 L 622.3,193.7 L 622.6,195.8 L 623.0,197.9 L 623.3,200.1 L 623.7,202.4 L 624.1,204.7 L 624.4,207.0 L 624.8,209.3 L 625.1,211.7 L 625.5,214.1 L 625.9,216.6 L 626.2,219.0 L 626.6,221.5 L 626.9,224.0 L 627.3,226.6 L 627.7,229.1 L 628.0,231.6 L 628.4,234.2 L 628.7,236.8 L 629.1,239.3 L 629.5,241.9 L 629.8,244.4 L 630.2,247.0 L 630.5,249.6 L 630.9,252.1 L 631.3,254.6 L 631.6,257.1 L 632.0,259.6 L 632.3,262.1 L 632.7,264.6 L 633.1,267.0 L 633.4,269.4 L 633.8,271.8 L 634.1,274.1 L 634.5,276.4 L 634.9,278.7 L 635.2,280.9 L 635.6,283.1 L 635.9,285.2 L 636.3,287.3 L 636.7,289.4 L 637.0,291.4 L 637.4,293.3 L 637.7,295.2 L 638.1,297.0 L 638.5,298.8 L 638.8,300.5 L 639.2,302.1 L 639.5,303.7 L 639.9,305.2 L 640.3,306.7 L 640.6,308.1 L 641.0,309.4 L 641.4,310.6 L 641.7,311.8 L 642.1,312.9 L 642.4,313.9 L 642.8,314.9 L 643.2,315.7 L 643.5,316.5 L 643.9,317.2 L 644.2,317.9 L 644.6,318.4 L 645.0,318.9 L 645.3,319.3 L 645.7,319.6 L 646.0,319.8 L 646.4,319.9 L 646.8,320.0 L 647.1,320.0 L 647.5,319.9 L 647.8,319.7 L 648.2,319.4 L 648.6,319.1 L 648.9,318.6 L 649.3,318.1 L 649.6,317.5 L 650.0,316.9 L 650.4,316.1 L 650.7,315.3 L 651.1,314.4 L 651.4,313.4 L 651.8,312.3 L 652.2,311.2 L 652.5,310.0 L 652.9,308.7 L 653.2,307.4 L 653.6,306.0 L 654.0,304.5 L 654.3,302.9 L 654.7,301.3 L 655.0,299.6 L 655.4,297.9 L 655.8,296.1 L 656.1,294.2 L 656.5,292.3 L 656.8,290.3 L 657.2,288.3 L 657.6,286.2 L 657.9,284.1 L 658.3,282.0 L 658.6,279.8 L 659.0,277.5 L 659.4,275.2 L 659.7,272.9 L 660.1,270.5 L 660.4,268.2 L 660.8,265.7 L 661.2,263.3 L 661.5,260.8 L 661.9,258.4 L 662.2,255.8 L 662.6,253.3 L 663.0,250.8 L 663.3,248.2 L 663.7,245.7 L 664.0,243.1 L 664.4,240.6 L 664.8,238.0 L 665.1,235.4 L 665.5,232.9 L 665.8,230.3 L 666.2,227.8 L 666.6,225.2 L 666.9,222.7 L 667.3,220.2 L 667.6,217.8 L 668.0,215.3 L 668.4,212.9 L 668.7,210.5 L 669.1,208.1 L 669.4,205.8 L 669.8,203.5 L 670.2,201.2 L 670.5,199.0 L 670.9,196.8 L 671.2,194.7 L 671.6,192.6 L 672.0,190.5 L 672.3,188.5 L 672.7,186.6 L 673.0,184.7 L 673.4,182.9 L 673.8,181.1 L 674.1,179.4 L 674.5,177.8 L 674.8,176.2 L 675.2,174.7 L 675.6,173.2 L 675.9,171.9 L 676.3,170.5 L 676.6,169.3 L 677.0,168.1 L 677.4,167.1 L 677.7,166.0 L 678.1,165.1 L 678.4,164.2 L 678.8,163.5 L 679.2,162.7 L 679.5,162.1 L 679.9,161.6 L 680.3,161.1 L 680.6,160.7 L 681.0,160.4 L 681.3,160.2 L 681.7,160.1 L 682.1,160.0 L 682.4,160.0 L 682.8,160.1 L 683.1,160.3 L 683.5,160.6 L 683.9,160.9 L 684.2,161.4 L 684.6,161.9 L 684.9,162.5 L 685.3,163.2 L 685.7,163.9 L 686.0,164.8 L 686.4,165.7 L 686.7,166.7 L 687.1,167.7 L 687.5,168.9 L 687.8,170.1 L 688.2,171.3 L 688.5,172.7 L 688.9,174.1 L 689.3,175.6 L 689.6,177.2 L 690.0,178.8 L 690.3,180.5 L 690.7,182.2 L 691.1,184.0 L 691.4,185.9 L 691.8,187.8 L 692.1,189.8 L 692.5,191.8 L 692.9,193.9 L 693.2,196.0 L 693.6,198.1 L 693.9,200.4 L 694.3,202.6 L 694.7,204.9 L 695.0,207.2 L 695.4,209.6 L 695.7,212.0 L 696.1,214.4 L 696.5,216.8 L 696.8,219.3 L 697.2,221.8 L 697.5,224.3 L 697.9,226.8 L 698.3,229.3 L 698.6,231.9 L 699.0,234.4 L 699.3,237.0 L 699.7,239.6 L 700.1,242.1 L 700.4,244.7 L 700.8,247.3 L 701.1,249.8 L 701.5,252.4 L 701.9,254.9 L 702.2,257.4 L 702.6,259.9 L 702.9,262.4 L 703.3,264.8 L 703.7,267.2 L 704.0,269.6 L 704.4,272.0 L 704.7,274.3 L 705.1,276.6 L 705.5,278.9 L 705.8,281.1 L 706.2,283.3 L 706.5,285.4 L 706.9,287.5 L 707.3,289.6 L 707.6,291.6 L 708.0,293.5 L 708.3,295.4 L 708.7,297.2 L 709.1,299.0 L 709.4,300.7 L 709.8,302.3 L 710.1,303.9 L 710.5,305.4 L 710.9,306.8 L 711.2,308.2 L 711.6,309.5 L 711.9,310.7 L 712.3,311.9 L 712.7,313.0 L 713.0,314.0 L 713.4,314.9 L 713.7,315.8 L 714.1,316.6 L 714.5,317.3 L 714.8,317.9 L 715.2,318.5 L 715.5,318.9 L 715.9,319.3 L 716.3,319.6 L 716.6,319.8 L 717.0,319.9 L 717.3,320.0 L 717.7,320.0 L 718.1,319.9 L 718.4,319.7 L 718.8,319.4 L 719.1,319.0 L 719.5,318.6 L 719.9,318.1 L 720.2,317.5 L 720.6,316.8 L 721.0,316.0 L 721.3,315.2 L 721.7,314.3 L 722.0,313.3 L 722.4,312.2 L 722.8,311.1 L 723.1,309.9 L 723.5,308.6 L 723.8,307.2 L 724.2,305.8 L 724.6,304.3 L 724.9,302.8 L 725.3,301.1 L 725.6,299.4 L 726.0,297.7 L 726.4,295.9 L 726.7,294.0 L 727.1,292.1 L 727.4,290.1 L 727.8,288.1 L 728.2,286.0 L 728.5,283.9 L 728.9,281.7 L 729.2,279.5 L 729.6,277.3 L 730.0,275.0 L 730.3,272.7 L 730.7,270.3 L 731.0,267.9 L 731.4,265.5 L 731.8,263.1 L 732.1,260.6 L 732.5,258.1 L 732.8,255.6 L 733.2,253.1 L 733.6,250.5 L 733.9,248.0 L 734.3,245.4 L 734.6,242.9 L 735.0,240.3 L 735.4,237.7 L 735.7,235.2 L 736.1,232.6 L 736.4,230.1 L 736.8,227.5 L 737.2,225.0 L 737.5,222.5 L 737.9,220.0 L 738.2,217.5 L 738.6,215.1 L 739.0,212.6 L 739.3,210.2 L 739.7,207.9 L 740.0,205.5 L 740.4,203.2 L 740.8,201.0 L 741.1,198.8 L 741.5,196.6 L 741.8,194.5 L 742.2,192.4 L 742.6,190.3 L 742.9,188.4 L 743.3,186.4 L 743.6,184.5 L 744.0,182.7 L 744.4,181.0 L 744.7,179.3 L 745.1,177.6 L 745.4,176.0 L 745.8,174.5 L 746.2,173.1 L 746.5,171.7 L 746.9,170.4 L 747.2,169.2 L 747.6,168.0 L 748.0,167.0 L 748.3,165.9 L 748.7,165.0 L 749.0,164.2 L 749.4,163.4 L 749.8,162.7 L 750.1,162.1 L 750.5,161.5 L 750.8,161.1 L 751.2,160.7 L 751.6,160.4 L 751.9,160.2 L 752.3,160.0 L 752.6,160.0 L 753.0,160.0 L 753.4,160.1 L 753.7,160.3 L 754.1,160.6 L 754.4,161.0 L 754.8,161.4 L 755.2,162.0 L 755.5,162.6 L 755.9,163.2 L 756.2,164.0 L 756.6,164.8 L 757.0,165.8 L 757.3,166.8 L 757.7,167.8 L 758.0,169.0 L 758.4,170.2 L 758.8,171.5 L 759.1,172.8 L 759.5,174.3 L 759.8,175.8 L 760.2,177.3 L 760.6,178.9 L 760.9,180.6 L 761.3,182.4 L 761.7,184.2 L 762.0,186.1 L 762.4,188.0 L 762.7,190.0 L 763.1,192.0 L 763.5,194.1 L 763.8,196.2 L 764.2,198.4 L 764.5,200.6 L 764.9,202.8 L 765.3,205.1 L 765.6,207.4 L 766.0,209.8 L 766.3,212.2 L 766.7,214.6 L 767.1,217.1 L 767.4,219.5 L 767.8,222.0 L 768.1,224.5 L 768.5,227.1 L 768.9,229.6 L 769.2,232.1 L 769.6,234.7 L 769.9,237.3 L 770.3,239.8 L 770.7,242.4 L 771.0,245.0 L 771.4,247.5 L 771.7,250.1 L 772.1,252.6 L 772.5,255.1 L 772.8,257.6 L 773.2,260.1 L 773.5,262.6 L 773.9,265.1 L 774.3,267.5 L 774.6,269.9 L 775.0,272.2 L 775.3,274.6 L 775.7,276.9 L 776.1,279.1 L 776.4,281.3 L 776.8,283.5 L 777.1,285.6 L 777.5,287.7 L 777.9,289.8 L 778.2,291.7 L 778.6,293.7 L 778.9,295.5 L 779.3,297.4 L 779.7,299.1 L 780.0,300.8 L 780.4,302.5 L 780.7,304.0 L 781.1,305.5 L 781.5,307.0 L 781.8,308.3 L 782.2,309.6 L 782.5,310.9 L 782.9,312.0 L 783.3,313.1 L 783.6,314.1 L 784.0,315.0 L 784.3,315.9 L 784.7,316.7 L 785.1,317.4 L 785.4,318.0 L 785.8,318.5 L 786.1,319.0 L 786.5,319.3 L 786.9,319.6 L 787.2,319.8 L 787.6,320.0 L 787.9,320.0 L 788.3,320.0 L 788.7,319.8 L 789.0,319.6 L 789.4,319.4 L 789.7,319.0 L 790.1,318.5 L 790.5,318.0 L 790.8,317.4 L 791.2,316.7 L 791.5,316.0 L 791.9,315.1 L 792.3,314.2 L 792.6,313.2 L 793.0,312.1 L 793.3,311.0 L 793.7,309.8 L 794.1,308.5 L 794.4,307.1 L 794.8,305.7 L 795.1,304.2 L 795.5,302.6 L 795.9,301.0 L 796.2,299.3 L 796.6,297.5 L 796.9,295.7 L 797.3,293.8 L 797.7,291.9 L 798.0,289.9 L 798.4,287.9 L 798.7,285.8 L 799.1,283.7 L 799.5,281.5 L 799.8,279.3 L 800.2,277.1 L 800.6,274.8 L 800.9,272.4 L 801.3,270.1 L 801.6,267.7 L 802.0,265.3 L 802.4,262.8 L 802.7,260.4 L 803.1,257.9 L 803.4,255.4 L 803.8,252.8 L 804.2,250.3 L 804.5,247.7 L 804.9,245.2 L 805.2,242.6 L 805.6,240.1 L 806.0,237.5 L 806.3,234.9 L 806.7,232.4 L 807.0,229.8 L 807.4,227.3 L 807.8,224.8 L 808.1,222.2 L 808.5,219.7 L 808.8,217.3 L 809.2,214.8 L 809.6,212.4 L 809.9,210.0 L 810.3,207.6 L 810.6,205.3 L 811.0,203.0 L 811.4,200.8 L 811.7,198.6 L 812.1,196.4 L 812.4,194.3 L 812.8,192.2 L 813.2,190.1 L 813.5,188.2 L 813.9,186.2 L 814.2,184.4 L 814.6,182.5 L 815.0,180.8 L 815.3,179.1 L 815.7,177.5 L 816.0,175.9 L 816.4,174.4 L 816.8,173.0 L 817.1,171.6 L 817.5,170.3 L 817.8,169.1 L 818.2,167.9 L 818.6,166.8 L 818.9,165.8 L 819.3,164.9 L 819.6,164.1 L 820.0,163.3"
          fill="none" stroke="#E74C3C" stroke-width="1.2" opacity="0.4" stroke-dasharray="6,4"/>
  </g>

  <!-- 14.1 kHz ALIAS SIGNAL (what the ADC reconstructs, solid cyan) -->
  <g filter="url(#glowSoft)">
    <path d="M 100.0,240.0 L 101.4,244.8 L 102.9,249.6 L 104.3,254.4 L 105.8,259.1 L 107.2,263.8 L 108.7,268.4 L 110.1,272.8 L 111.5,277.2 L 113.0,281.4 L 114.4,285.4 L 115.9,289.3 L 117.3,293.0 L 118.8,296.5 L 120.2,299.9 L 121.6,303.0 L 123.1,305.8 L 124.5,308.4 L 126.0,310.8 L 127.4,312.9 L 128.9,314.8 L 130.3,316.4 L 131.7,317.7 L 133.2,318.7 L 134.6,319.4 L 136.1,319.9 L 137.5,320.0 L 139.0,319.9 L 140.4,319.4 L 141.8,318.7 L 143.3,317.7 L 144.7,316.4 L 146.2,314.8 L 147.6,313.0 L 149.1,310.9 L 150.5,308.5 L 151.9,305.9 L 153.4,303.0 L 154.8,299.9 L 156.3,296.6 L 157.7,293.1 L 159.2,289.4 L 160.6,285.5 L 162.0,281.5 L 163.5,277.3 L 164.9,272.9 L 166.4,268.5 L 167.8,263.9 L 169.3,259.2 L 170.7,254.5 L 172.1,249.8 L 173.6,244.9 L 175.0,240.1 L 176.5,235.3 L 177.9,230.5 L 179.4,225.7 L 180.8,221.0 L 182.2,216.3 L 183.7,211.7 L 185.1,207.3 L 186.6,202.9 L 188.0,198.7 L 189.5,194.7 L 190.9,190.8 L 192.3,187.1 L 193.8,183.5 L 195.2,180.2 L 196.7,177.1 L 198.1,174.2 L 199.6,171.6 L 201.0,169.2 L 202.4,167.1 L 203.9,165.3 L 205.3,163.7 L 206.8,162.4 L 208.2,161.3 L 209.7,160.6 L 211.1,160.2 L 212.5,160.0 L 214.0,160.1 L 215.4,160.6 L 216.9,161.3 L 218.3,162.3 L 219.8,163.6 L 221.2,165.1 L 222.6,167.0 L 224.1,169.1 L 225.5,171.4 L 227.0,174.1 L 228.4,176.9 L 229.9,180.0 L 231.3,183.3 L 232.7,186.8 L 234.2,190.5 L 235.6,194.4 L 237.1,198.4 L 238.5,202.6 L 240.0,207.0 L 241.4,211.4 L 242.8,216.0 L 244.3,220.6 L 245.7,225.4 L 247.2,230.1 L 248.6,234.9 L 250.1,239.8 L 251.5,244.6 L 252.9,249.4 L 254.4,254.2 L 255.8,258.9 L 257.3,263.6 L 258.7,268.1 L 260.2,272.6 L 261.6,277.0 L 263.0,281.2 L 264.5,285.2 L 265.9,289.1 L 267.4,292.9 L 268.8,296.4 L 270.3,299.7 L 271.7,302.8 L 273.1,305.7 L 274.6,308.3 L 276.0,310.7 L 277.5,312.8 L 278.9,314.7 L 280.4,316.3 L 281.8,317.6 L 283.2,318.6 L 284.7,319.4 L 286.1,319.8 L 287.6,320.0 L 289.0,319.9 L 290.5,319.5 L 291.9,318.7 L 293.3,317.7 L 294.8,316.5 L 296.2,314.9 L 297.7,313.1 L 299.1,311.0 L 300.6,308.6 L 302.0,306.0 L 303.4,303.2 L 304.9,300.1 L 306.3,296.8 L 307.8,293.3 L 309.2,289.6 L 310.7,285.7 L 312.1,281.7 L 313.5,277.5 L 315.0,273.1 L 316.4,268.7 L 317.9,264.1 L 319.3,259.5 L 320.8,254.7 L 322.2,250.0 L 323.6,245.2 L 325.1,240.3 L 326.5,235.5 L 328.0,230.7 L 329.4,225.9 L 330.9,221.2 L 332.3,216.5 L 333.7,212.0 L 335.2,207.5 L 336.6,203.1 L 338.1,198.9 L 339.5,194.9 L 341.0,190.9 L 342.4,187.2 L 343.8,183.7 L 345.3,180.4 L 346.7,177.3 L 348.2,174.4 L 349.6,171.7 L 351.1,169.3 L 352.5,167.2 L 353.9,165.3 L 355.4,163.7 L 356.8,162.4 L 358.3,161.4 L 359.7,160.6 L 361.2,160.2 L 362.6,160.0 L 364.0,160.1 L 365.5,160.5 L 366.9,161.2 L 368.4,162.2 L 369.8,163.5 L 371.3,165.1 L 372.7,166.9 L 374.1,169.0 L 375.6,171.3 L 377.0,173.9 L 378.5,176.8 L 379.9,179.8 L 381.4,183.1 L 382.8,186.6 L 384.2,190.3 L 385.7,194.2 L 387.1,198.2 L 388.6,202.4 L 390.0,206.8 L 391.5,211.2 L 392.9,215.8 L 394.3,220.4 L 395.8,225.1 L 397.2,229.9 L 398.7,234.7 L 400.1,239.5 L 401.6,244.4 L 403.0,249.2 L 404.4,254.0 L 405.9,258.7 L 407.3,263.4 L 408.8,267.9 L 410.2,272.4 L 411.7,276.8 L 413.1,281.0 L 414.5,285.1 L 416.0,289.0 L 417.4,292.7 L 418.9,296.2 L 420.3,299.6 L 421.8,302.7 L 423.2,305.6 L 424.6,308.2 L 426.1,310.6 L 427.5,312.7 L 429.0,314.6 L 430.4,316.2 L 431.9,317.6 L 433.3,318.6 L 434.7,319.4 L 436.2,319.8 L 437.6,320.0 L 439.1,319.9 L 440.5,319.5 L 442.0,318.8 L 443.4,317.8 L 444.8,316.5 L 446.3,315.0 L 447.7,313.2 L 449.2,311.1 L 450.6,308.7 L 452.1,306.1 L 453.5,303.3 L 454.9,300.2 L 456.4,296.9 L 457.8,293.5 L 459.3,289.8 L 460.7,285.9 L 462.2,281.9 L 463.6,277.7 L 465.1,273.3 L 466.5,268.9 L 467.9,264.3 L 469.4,259.7 L 470.8,255.0 L 472.3,250.2 L 473.7,245.4 L 475.2,240.6 L 476.6,235.7 L 478.0,230.9 L 479.5,226.1 L 480.9,221.4 L 482.4,216.8 L 483.8,212.2 L 485.3,207.7 L 486.7,203.3 L 488.1,199.1 L 489.6,195.0 L 491.0,191.1 L 492.5,187.4 L 493.9,183.9 L 495.4,180.5 L 496.8,177.4 L 498.2,174.5 L 499.7,171.9 L 501.1,169.4 L 502.6,167.3 L 504.0,165.4 L 505.5,163.8 L 506.9,162.5 L 508.3,161.4 L 509.8,160.7 L 511.2,160.2 L 512.7,160.0 L 514.1,160.1 L 515.6,160.5 L 517.0,161.2 L 518.4,162.2 L 519.9,163.4 L 521.3,165.0 L 522.8,166.8 L 524.2,168.9 L 525.7,171.2 L 527.1,173.8 L 528.5,176.6 L 530.0,179.7 L 531.4,183.0 L 532.9,186.5 L 534.3,190.1 L 535.8,194.0 L 537.2,198.1 L 538.6,202.2 L 540.1,206.6 L 541.5,211.0 L 543.0,215.6 L 544.4,220.2 L 545.9,224.9 L 547.3,229.7 L 548.7,234.5 L 550.2,239.3 L 551.6,244.2 L 553.1,249.0 L 554.5,253.7 L 556.0,258.5 L 557.4,263.1 L 558.8,267.7 L 560.3,272.2 L 561.7,276.6 L 563.2,280.8 L 564.6,284.9 L 566.1,288.8 L 567.5,292.5 L 568.9,296.1 L 570.4,299.4 L 571.8,302.5 L 573.3,305.4 L 574.7,308.1 L 576.2,310.5 L 577.6,312.7 L 579.0,314.5 L 580.5,316.2 L 581.9,317.5 L 583.4,318.6 L 584.8,319.3 L 586.3,319.8 L 587.7,320.0 L 589.1,319.9 L 590.6,319.5 L 592.0,318.8 L 593.5,317.8 L 594.9,316.6 L 596.4,315.1 L 597.8,313.3 L 599.2,311.2 L 600.7,308.8 L 602.1,306.3 L 603.6,303.4 L 605.0,300.4 L 606.5,297.1 L 607.9,293.6 L 609.3,289.9 L 610.8,286.1 L 612.2,282.0 L 613.7,277.9 L 615.1,273.5 L 616.6,269.1 L 618.0,264.5 L 619.4,259.9 L 620.9,255.2 L 622.3,250.4 L 623.8,245.6 L 625.2,240.8 L 626.7,236.0 L 628.1,231.1 L 629.5,226.4 L 631.0,221.6 L 632.4,217.0 L 633.9,212.4 L 635.3,207.9 L 636.8,203.5 L 638.2,199.3 L 639.6,195.2 L 641.1,191.3 L 642.5,187.6 L 644.0,184.0 L 645.4,180.7 L 646.9,177.5 L 648.3,174.6 L 649.7,172.0 L 651.2,169.6 L 652.6,167.4 L 654.1,165.5 L 655.5,163.9 L 657.0,162.5 L 658.4,161.5 L 659.8,160.7 L 661.3,160.2 L 662.7,160.0 L 664.2,160.1 L 665.6,160.5 L 667.1,161.2 L 668.5,162.1 L 669.9,163.4 L 671.4,164.9 L 672.8,166.7 L 674.3,168.8 L 675.7,171.1 L 677.2,173.7 L 678.6,176.5 L 680.0,179.5 L 681.5,182.8 L 682.9,186.3 L 684.4,190.0 L 685.8,193.8 L 687.3,197.9 L 688.7,202.0 L 690.1,206.4 L 691.6,210.8 L 693.0,215.3 L 694.5,220.0 L 695.9,224.7 L 697.4,229.5 L 698.8,234.3 L 700.2,239.1 L 701.7,243.9 L 703.1,248.7 L 704.6,253.5 L 706.0,258.3 L 707.5,262.9 L 708.9,267.5 L 710.3,272.0 L 711.8,276.4 L 713.2,280.6 L 714.7,284.7 L 716.1,288.6 L 717.6,292.3 L 719.0,295.9 L 720.4,299.3 L 721.9,302.4 L 723.3,305.3 L 724.8,308.0 L 726.2,310.4 L 727.7,312.6 L 729.1,314.5 L 730.5,316.1 L 732.0,317.4 L 733.4,318.5 L 734.9,319.3 L 736.3,319.8 L 737.8,320.0 L 739.2,319.9 L 740.6,319.5 L 742.1,318.9 L 743.5,317.9 L 745.0,316.7 L 746.4,315.1 L 747.9,313.3 L 749.3,311.3 L 750.7,309.0 L 752.2,306.4 L 753.6,303.6 L 755.1,300.5 L 756.5,297.3 L 758.0,293.8 L 759.4,290.1 L 760.8,286.3 L 762.3,282.2 L 763.7,278.1 L 765.2,273.7 L 766.6,269.3 L 768.1,264.8 L 769.5,260.1 L 770.9,255.4 L 772.4,250.6 L 773.8,245.8 L 775.3,241.0 L 776.7,236.2 L 778.2,231.4 L 779.6,226.6 L 781.0,221.9 L 782.5,217.2 L 783.9,212.6 L 785.4,208.1 L 786.8,203.7 L 788.3,199.5 L 789.7,195.4 L 791.1,191.5 L 792.6,187.7 L 794.0,184.2 L 795.5,180.8 L 796.9,177.7 L 798.4,174.8 L 799.8,172.1 L 801.2,169.7 L 802.7,167.5 L 804.1,165.6 L 805.6,163.9 L 807.0,162.6 L 808.5,161.5 L 809.9,160.7 L 811.3,160.2 L 812.8,160.0 L 814.2,160.1 L 815.7,160.5 L 817.1,161.1 L 818.6,162.1 L 820.0,163.3"
          fill="none" stroke="#00CEC9" stroke-width="2" opacity="0.7"/>
  </g>

  <!-- SAMPLE POINTS (land on BOTH curves exactly) -->
  <g filter="url(#glow)">
    <!-- Stems -->
    <g stroke="#55efc4" stroke-width="1" opacity="0.4">
      <line x1="100.0" y1="240" x2="100.0" y2="240.0"/>
      <line x1="148.0" y1="240" x2="148.0" y2="312.4"/>
      <line x1="196.0" y1="240" x2="196.0" y2="178.5"/>
      <line x1="244.0" y1="240" x2="244.0" y2="219.7"/>
      <line x1="292.0" y1="240" x2="292.0" y2="318.7"/>
      <line x1="340.0" y1="240" x2="340.0" y2="193.5"/>
      <line x1="388.0" y1="240" x2="388.0" y2="200.7"/>
      <line x1="436.0" y1="240" x2="436.0" y2="319.8"/>
      <line x1="484.0" y1="240" x2="484.0" y2="211.6"/>
      <line x1="532.0" y1="240" x2="532.0" y2="184.3"/>
      <line x1="580.0" y1="240" x2="580.0" y2="315.7"/>
      <line x1="628.0" y1="240" x2="628.0" y2="231.5"/>
      <line x1="676.0" y1="240" x2="676.0" y2="171.6"/>
      <line x1="724.0" y1="240" x2="724.0" y2="306.6"/>
      <line x1="772.0" y1="240" x2="772.0" y2="251.9"/>
      <line x1="820.0" y1="240" x2="820.0" y2="163.3"/>
    </g>
    <!-- Dots -->
    <g fill="#55efc4">
      <circle cx="100.0" cy="240.0" r="5"/>
      <circle cx="148.0" cy="312.4" r="5"/>
      <circle cx="196.0" cy="178.5" r="5"/>
      <circle cx="244.0" cy="219.7" r="5"/>
      <circle cx="292.0" cy="318.7" r="5"/>
      <circle cx="340.0" cy="193.5" r="5"/>
      <circle cx="388.0" cy="200.7" r="5"/>
      <circle cx="436.0" cy="319.8" r="5"/>
      <circle cx="484.0" cy="211.6" r="5"/>
      <circle cx="532.0" cy="184.3" r="5"/>
      <circle cx="580.0" cy="315.7" r="5"/>
      <circle cx="628.0" cy="231.5" r="5"/>
      <circle cx="676.0" cy="171.6" r="5"/>
      <circle cx="724.0" cy="306.6" r="5"/>
      <circle cx="772.0" cy="251.9" r="5"/>
      <circle cx="820.0" cy="163.3" r="5"/>
    </g>
  </g>

  <!-- "Identical samples" callout -->
  <g>
    <rect x="345" y="96" width="210" height="30" rx="8" fill="#141416" stroke="#55efc4" stroke-width="0.8" opacity="0.8"/>
    <text x="450" y="116" text-anchor="middle" fill="#55efc4" font-family="Segoe UI, Arial, sans-serif" font-size="12" font-weight="bold">Samples are identical on both</text>
    <line x1="450" y1="126" x2="436" y2="155" stroke="#55efc4" stroke-width="0.6" opacity="0.4" stroke-dasharray="3,3"/>
  </g>

  <!-- LEGEND -->
  <g transform="translate(100, 395)">
    <line x1="0" y1="10" x2="40" y2="10" stroke="#E74C3C" stroke-width="1.5" opacity="0.5" stroke-dasharray="6,4"/>
    <text x="50" y="14" fill="#E74C3C" font-family="Segoe UI, Arial, sans-serif" font-size="12" opacity="0.7">30 kHz — real signal (above Nyquist)</text>

    <line x1="0" y1="35" x2="40" y2="35" stroke="#00CEC9" stroke-width="2" opacity="0.7"/>
    <text x="50" y="39" fill="#00CEC9" font-family="Segoe UI, Arial, sans-serif" font-size="12">14.1 kHz — alias (what the ADC reconstructs)</text>

    <circle cx="20" cy="60" r="4" fill="#55efc4"/>
    <text x="50" y="64" fill="#55efc4" font-family="Segoe UI, Arial, sans-serif" font-size="12">Sample points — land on both curves simultaneously</text>
  </g>

  <!-- FREQUENCY MATH BOX -->
  <g transform="translate(580, 395)">
    <rect x="0" y="0" width="260" height="72" rx="8" fill="#1a1a1e" stroke="#2a2a3a" stroke-width="0.8"/>
    <text x="130" y="22" text-anchor="middle" fill="#d4a050" font-family="Segoe UI, Arial, sans-serif" font-size="12" font-weight="bold">Alias frequency:</text>
    <text x="130" y="45" text-anchor="middle" fill="#d4a050" font-family="Segoe UI, Arial, sans-serif" font-size="13" font-style="italic">f_alias = f_s − f = 44.1 − 30 = 14.1 kHz</text>
    <text x="130" y="64" text-anchor="middle" fill="#6c7a89" font-family="Segoe UI, Arial, sans-serif" font-size="10">Indistinguishable from a real 14.1 kHz tone</text>
  </g>

  <!-- Bottom legend -->
  <text x="450" y="530" text-anchor="middle" fill="#6c7a89" font-family="Segoe UI, Arial, sans-serif" font-size="11">The anti-aliasing filter removes frequencies above Nyquist before sampling — once aliased, the damage is permanent</text>
</svg>