<svg xmlns="http://www.w3.org/2000/svg" viewBox="0 0 900 545" width="900" height="545">
  <defs>
    <linearGradient id="bgGrad" x1="0%" y1="0%" x2="0%" y2="100%">
      <stop offset="0%" stop-color="#141416"/>
      <stop offset="100%" stop-color="#141416"/>
    </linearGradient>
    <filter id="glowSoft">
      <feGaussianBlur stdDeviation="2" result="coloredBlur"/>
      <feMerge>
        <feMergeNode in="coloredBlur"/>
        <feMergeNode in="SourceGraphic"/>
      </feMerge>
    </filter>
  </defs>

  <!-- Background -->
  <rect width="900" height="545" fill="url(#bgGrad)" rx="12"/>

  <!-- Title -->
  <text x="450" y="38" text-anchor="middle" fill="#00CEC9" font-family="Segoe UI, Arial, sans-serif" font-size="20" font-weight="bold" letter-spacing="1.5">QUANTIZATION</text>
  <text x="450" y="58" text-anchor="middle" fill="#6c7a89" font-family="Segoe UI, Arial, sans-serif" font-size="12" letter-spacing="1">Mapping Continuous Voltages to Discrete Levels</text>

  <!-- Quantization level lines -->
  <g>
    <line x1="100" y1="350.0" x2="820" y2="350.0" stroke="#2a2a3a" stroke-width="0.5" stroke-dasharray="4,8"/>
    <line x1="100" y1="330.0" x2="820" y2="330.0" stroke="#2a2a3a" stroke-width="0.5" stroke-dasharray="4,8"/>
    <line x1="100" y1="310.0" x2="820" y2="310.0" stroke="#2a2a3a" stroke-width="0.5" stroke-dasharray="4,8"/>
    <line x1="100" y1="290.0" x2="820" y2="290.0" stroke="#2a2a3a" stroke-width="0.5" stroke-dasharray="4,8"/>
    <line x1="100" y1="270.0" x2="820" y2="270.0" stroke="#2a2a3a" stroke-width="0.5" stroke-dasharray="4,8"/>
    <line x1="100" y1="250.0" x2="820" y2="250.0" stroke="#2a2a3a" stroke-width="0.5" stroke-dasharray="4,8"/>
    <line x1="100" y1="230.0" x2="820" y2="230.0" stroke="#2a2a3a" stroke-width="0.5" stroke-dasharray="4,8"/>
    <line x1="100" y1="210.0" x2="820" y2="210.0" stroke="#2a2a3a" stroke-width="0.5" stroke-dasharray="4,8"/>
    <line x1="100" y1="190.0" x2="820" y2="190.0" stroke="#2a2a3a" stroke-width="0.5" stroke-dasharray="4,8"/>
    <line x1="100" y1="170.0" x2="820" y2="170.0" stroke="#2a2a3a" stroke-width="0.5" stroke-dasharray="4,8"/>
    <line x1="100" y1="150.0" x2="820" y2="150.0" stroke="#2a2a3a" stroke-width="0.5" stroke-dasharray="4,8"/>
    <line x1="100" y1="130.0" x2="820" y2="130.0" stroke="#2a2a3a" stroke-width="0.5" stroke-dasharray="4,8"/>
  </g>

  <!-- Level numbers -->
  <text x="830" y="353.0" fill="#6c7a89" font-family="Courier New, monospace" font-size="8" opacity="0.4">0</text>
  <text x="830" y="333.0" fill="#6c7a89" font-family="Courier New, monospace" font-size="8" opacity="0.4">1</text>
  <text x="830" y="313.0" fill="#6c7a89" font-family="Courier New, monospace" font-size="8" opacity="0.4">2</text>
  <text x="830" y="293.0" fill="#6c7a89" font-family="Courier New, monospace" font-size="8" opacity="0.4">3</text>
  <text x="830" y="273.0" fill="#6c7a89" font-family="Courier New, monospace" font-size="8" opacity="0.4">4</text>
  <text x="830" y="253.0" fill="#6c7a89" font-family="Courier New, monospace" font-size="8" opacity="0.4">5</text>
  <text x="830" y="233.0" fill="#6c7a89" font-family="Courier New, monospace" font-size="8" opacity="0.4">6</text>
  <text x="830" y="213.0" fill="#6c7a89" font-family="Courier New, monospace" font-size="8" opacity="0.4">7</text>
  <text x="830" y="193.0" fill="#6c7a89" font-family="Courier New, monospace" font-size="8" opacity="0.4">8</text>
  <text x="830" y="173.0" fill="#6c7a89" font-family="Courier New, monospace" font-size="8" opacity="0.4">9</text>
  <text x="830" y="153.0" fill="#6c7a89" font-family="Courier New, monospace" font-size="8" opacity="0.4">10</text>
  <text x="830" y="133.0" fill="#6c7a89" font-family="Courier New, monospace" font-size="8" opacity="0.4">11</text>


  <!-- Axes -->
  <line x1="80" y1="95" x2="80" y2="385" stroke="#3a3a4a" stroke-width="1"/>
  <line x1="80" y1="240" x2="850" y2="240" stroke="#3a3a4a" stroke-width="0.8" opacity="0.6"/>
  <polygon points="850,240 843,236 843,244" fill="#3a3a4a"/>

  <!-- Axis labels -->
  <text x="70" y="124" text-anchor="end" fill="#6c7a89" font-family="Segoe UI, Arial, sans-serif" font-size="10">+V</text>
  <text x="70" y="244" text-anchor="end" fill="#6c7a89" font-family="Segoe UI, Arial, sans-serif" font-size="10">0</text>
  <text x="70" y="364" text-anchor="end" fill="#6c7a89" font-family="Segoe UI, Arial, sans-serif" font-size="10">−V</text>
  <text x="855" y="244" fill="#6c7a89" font-family="Segoe UI, Arial, sans-serif" font-size="11">time</text>

  <!-- QUANTIZATION ERROR FILL -->
  <path d="M 100.0,240.0 L 100.9,239.1 L 101.8,238.1 L 102.7,237.2 L 103.6,236.2 L 104.5,235.3 L 105.4,234.3 L 106.3,233.4 L 107.2,232.5 L 108.1,231.5 L 109.0,230.6 L 109.9,229.6 L 110.8,228.7 L 111.7,227.8 L 112.6,226.8 L 113.5,225.9 L 114.4,224.9 L 115.3,224.0 L 116.2,223.1 L 117.1,222.1 L 118.0,221.2 L 118.9,220.3 L 119.8,219.3 L 120.7,218.4 L 121.6,217.5 L 122.5,216.6 L 123.4,215.6 L 124.3,214.7 L 125.2,213.8 L 126.1,212.9 L 127.0,212.0 L 127.9,211.0 L 128.8,210.1 L 129.7,209.2 L 130.6,208.3 L 131.5,207.4 L 132.4,206.5 L 133.3,205.6 L 134.2,204.7 L 135.1,203.8 L 136.0,202.9 L 136.9,202.0 L 137.8,201.1 L 138.7,200.2 L 139.6,199.3 L 140.6,198.4 L 141.5,197.5 L 142.4,196.7 L 143.3,195.8 L 144.2,194.9 L 145.1,194.0 L 146.0,193.2 L 146.9,192.3 L 147.8,191.4 L 148.7,190.6 L 149.6,189.7 L 150.5,188.8 L 151.4,188.0 L 152.3,187.1 L 153.2,186.3 L 154.1,185.5 L 155.0,184.6 L 155.9,183.8 L 156.8,183.0 L 157.7,182.1 L 158.6,181.3 L 159.5,180.5 L 160.4,179.7 L 161.3,178.8 L 162.2,178.0 L 163.1,177.2 L 164.0,176.4 L 164.9,175.6 L 165.8,174.8 L 166.7,174.0 L 167.6,173.3 L 168.5,172.5 L 169.4,171.7 L 170.3,170.9 L 171.2,170.2 L 172.1,169.4 L 173.0,168.6 L 173.9,167.9 L 174.8,167.1 L 175.7,166.4 L 176.6,165.6 L 177.5,164.9 L 178.4,164.2 L 179.3,163.4 L 180.2,162.7 L 181.1,162.0 L 182.0,161.3 L 182.9,160.6 L 183.8,159.9 L 184.7,159.2 L 185.6,158.5 L 186.5,157.8 L 187.4,157.1 L 188.3,156.4 L 189.2,155.7 L 190.1,155.1 L 191.0,154.4 L 191.9,153.7 L 192.8,153.1 L 193.7,152.4 L 194.6,151.8 L 195.5,151.2 L 196.4,150.5 L 197.3,149.9 L 198.2,149.3 L 199.1,148.7 L 200.0,148.1 L 200.9,147.5 L 201.8,146.9 L 202.7,146.3 L 203.6,145.7 L 204.5,145.1 L 205.4,144.5 L 206.3,144.0 L 207.2,143.4 L 208.1,142.8 L 209.0,142.3 L 209.9,141.7 L 210.8,141.2 L 211.7,140.7 L 212.6,140.1 L 213.5,139.6 L 214.4,139.1 L 215.3,138.6 L 216.2,138.1 L 217.1,137.6 L 218.0,137.1 L 218.9,136.6 L 219.8,136.2 L 220.8,135.7 L 221.7,135.2 L 222.6,134.8 L 223.5,134.3 L 224.4,133.9 L 225.3,133.4 L 226.2,133.0 L 227.1,132.6 L 228.0,132.2 L 228.9,131.8 L 229.8,131.3 L 230.7,131.0 L 231.6,130.6 L 232.5,130.2 L 233.4,129.8 L 234.3,129.4 L 235.2,129.1 L 236.1,128.7 L 237.0,128.4 L 237.9,128.0 L 238.8,127.7 L 239.7,127.4 L 240.6,127.0 L 241.5,126.7 L 242.4,126.4 L 243.3,126.1 L 244.2,125.8 L 245.1,125.5 L 246.0,125.2 L 246.9,125.0 L 247.8,124.7 L 248.7,124.5 L 249.6,124.2 L 250.5,124.0 L 251.4,123.7 L 252.3,123.5 L 253.2,123.3 L 254.1,123.1 L 255.0,122.8 L 255.9,122.6 L 256.8,122.5 L 257.7,122.3 L 258.6,122.1 L 259.5,121.9 L 260.4,121.8 L 261.3,121.6 L 262.2,121.4 L 263.1,121.3 L 264.0,121.2 L 264.9,121.0 L 265.8,120.9 L 266.7,120.8 L 267.6,120.7 L 268.5,120.6 L 269.4,120.5 L 270.3,120.4 L 271.2,120.4 L 272.1,120.3 L 273.0,120.2 L 273.9,120.2 L 274.8,120.1 L 275.7,120.1 L 276.6,120.1 L 277.5,120.0 L 278.4,120.0 L 279.3,120.0 L 280.2,120.0 L 281.1,120.0 L 282.0,120.0 L 282.9,120.0 L 283.8,120.1 L 284.7,120.1 L 285.6,120.1 L 286.5,120.2 L 287.4,120.3 L 288.3,120.3 L 289.2,120.4 L 290.1,120.5 L 291.0,120.6 L 291.9,120.7 L 292.8,120.8 L 293.7,120.9 L 294.6,121.0 L 295.5,121.1 L 296.4,121.2 L 297.3,121.4 L 298.2,121.5 L 299.1,121.7 L 300.1,121.8 L 301.0,122.0 L 301.9,122.2 L 302.8,122.4 L 303.7,122.5 L 304.6,122.7 L 305.5,122.9 L 306.4,123.2 L 307.3,123.4 L 308.2,123.6 L 309.1,123.8 L 310.0,124.1 L 310.9,124.3 L 311.8,124.6 L 312.7,124.8 L 313.6,125.1 L 314.5,125.4 L 315.4,125.7 L 316.3,126.0 L 317.2,126.3 L 318.1,126.6 L 319.0,126.9 L 319.9,127.2 L 320.8,127.5 L 321.7,127.8 L 322.6,128.2 L 323.5,128.5 L 324.4,128.9 L 325.3,129.2 L 326.2,129.6 L 327.1,130.0 L 328.0,130.4 L 328.9,130.8 L 329.8,131.1 L 330.7,131.5 L 331.6,132.0 L 332.5,132.4 L 333.4,132.8 L 334.3,133.2 L 335.2,133.7 L 336.1,134.1 L 337.0,134.5 L 337.9,135.0 L 338.8,135.5 L 339.7,135.9 L 340.6,136.4 L 341.5,136.9 L 342.4,137.4 L 343.3,137.8 L 344.2,138.3 L 345.1,138.9 L 346.0,139.4 L 346.9,139.9 L 347.8,140.4 L 348.7,140.9 L 349.6,141.5 L 350.5,142.0 L 351.4,142.6 L 352.3,143.1 L 353.2,143.7 L 354.1,144.2 L 355.0,144.8 L 355.9,145.4 L 356.8,146.0 L 357.7,146.6 L 358.6,147.2 L 359.5,147.8 L 360.4,148.4 L 361.3,149.0 L 362.2,149.6 L 363.1,150.2 L 364.0,150.8 L 364.9,151.5 L 365.8,152.1 L 366.7,152.8 L 367.6,153.4 L 368.5,154.1 L 369.4,154.7 L 370.3,155.4 L 371.2,156.1 L 372.1,156.7 L 373.0,157.4 L 373.9,158.1 L 374.8,158.8 L 375.7,159.5 L 376.6,160.2 L 377.5,160.9 L 378.4,161.6 L 379.3,162.3 L 380.3,163.1 L 381.2,163.8 L 382.1,164.5 L 383.0,165.3 L 383.9,166.0 L 384.8,166.7 L 385.7,167.5 L 386.6,168.2 L 387.5,169.0 L 388.4,169.8 L 389.3,170.5 L 390.2,171.3 L 391.1,172.1 L 392.0,172.9 L 392.9,173.7 L 393.8,174.4 L 394.7,175.2 L 395.6,176.0 L 396.5,176.8 L 397.4,177.6 L 398.3,178.4 L 399.2,179.3 L 400.1,180.1 L 401.0,180.9 L 401.9,181.7 L 402.8,182.5 L 403.7,183.4 L 404.6,184.2 L 405.5,185.0 L 406.4,185.9 L 407.3,186.7 L 408.2,187.6 L 409.1,188.4 L 410.0,189.3 L 410.9,190.1 L 411.8,191.0 L 412.7,191.9 L 413.6,192.7 L 414.5,193.6 L 415.4,194.5 L 416.3,195.3 L 417.2,196.2 L 418.1,197.1 L 419.0,198.0 L 419.9,198.9 L 420.8,199.7 L 421.7,200.6 L 422.6,201.5 L 423.5,202.4 L 424.4,203.3 L 425.3,204.2 L 426.2,205.1 L 427.1,206.0 L 428.0,206.9 L 428.9,207.8 L 429.8,208.8 L 430.7,209.7 L 431.6,210.6 L 432.5,211.5 L 433.4,212.4 L 434.3,213.3 L 435.2,214.3 L 436.1,215.2 L 437.0,216.1 L 437.9,217.0 L 438.8,218.0 L 439.7,218.9 L 440.6,219.8 L 441.5,220.7 L 442.4,221.7 L 443.3,222.6 L 444.2,223.5 L 445.1,224.5 L 446.0,225.4 L 446.9,226.3 L 447.8,227.3 L 448.7,228.2 L 449.6,229.2 L 450.5,230.1 L 451.4,231.0 L 452.3,232.0 L 453.2,232.9 L 454.1,233.9 L 455.0,234.8 L 455.9,235.8 L 456.8,236.7 L 457.7,237.6 L 458.6,238.6 L 459.5,239.5 L 460.5,240.5 L 461.4,241.4 L 462.3,242.4 L 463.2,243.3 L 464.1,244.2 L 465.0,245.2 L 465.9,246.1 L 466.8,247.1 L 467.7,248.0 L 468.6,249.0 L 469.5,249.9 L 470.4,250.8 L 471.3,251.8 L 472.2,252.7 L 473.1,253.7 L 474.0,254.6 L 474.9,255.5 L 475.8,256.5 L 476.7,257.4 L 477.6,258.3 L 478.5,259.3 L 479.4,260.2 L 480.3,261.1 L 481.2,262.0 L 482.1,263.0 L 483.0,263.9 L 483.9,264.8 L 484.8,265.7 L 485.7,266.7 L 486.6,267.6 L 487.5,268.5 L 488.4,269.4 L 489.3,270.3 L 490.2,271.2 L 491.1,272.2 L 492.0,273.1 L 492.9,274.0 L 493.8,274.9 L 494.7,275.8 L 495.6,276.7 L 496.5,277.6 L 497.4,278.5 L 498.3,279.4 L 499.2,280.3 L 500.1,281.1 L 501.0,282.0 L 501.9,282.9 L 502.8,283.8 L 503.7,284.7 L 504.6,285.5 L 505.5,286.4 L 506.4,287.3 L 507.3,288.1 L 508.2,289.0 L 509.1,289.9 L 510.0,290.7 L 510.9,291.6 L 511.8,292.4 L 512.7,293.3 L 513.6,294.1 L 514.5,295.0 L 515.4,295.8 L 516.3,296.6 L 517.2,297.5 L 518.1,298.3 L 519.0,299.1 L 519.9,299.9 L 520.8,300.7 L 521.7,301.6 L 522.6,302.4 L 523.5,303.2 L 524.4,304.0 L 525.3,304.8 L 526.2,305.6 L 527.1,306.3 L 528.0,307.1 L 528.9,307.9 L 529.8,308.7 L 530.7,309.5 L 531.6,310.2 L 532.5,311.0 L 533.4,311.8 L 534.3,312.5 L 535.2,313.3 L 536.1,314.0 L 537.0,314.7 L 537.9,315.5 L 538.8,316.2 L 539.7,316.9 L 540.7,317.7 L 541.6,318.4 L 542.5,319.1 L 543.4,319.8 L 544.3,320.5 L 545.2,321.2 L 546.1,321.9 L 547.0,322.6 L 547.9,323.3 L 548.8,323.9 L 549.7,324.6 L 550.6,325.3 L 551.5,325.9 L 552.4,326.6 L 553.3,327.2 L 554.2,327.9 L 555.1,328.5 L 556.0,329.2 L 556.9,329.8 L 557.8,330.4 L 558.7,331.0 L 559.6,331.6 L 560.5,332.2 L 561.4,332.8 L 562.3,333.4 L 563.2,334.0 L 564.1,334.6 L 565.0,335.2 L 565.9,335.8 L 566.8,336.3 L 567.7,336.9 L 568.6,337.4 L 569.5,338.0 L 570.4,338.5 L 571.3,339.1 L 572.2,339.6 L 573.1,340.1 L 574.0,340.6 L 574.9,341.1 L 575.8,341.7 L 576.7,342.2 L 577.6,342.6 L 578.5,343.1 L 579.4,343.6 L 580.3,344.1 L 581.2,344.5 L 582.1,345.0 L 583.0,345.5 L 583.9,345.9 L 584.8,346.3 L 585.7,346.8 L 586.6,347.2 L 587.5,347.6 L 588.4,348.0 L 589.3,348.5 L 590.2,348.9 L 591.1,349.2 L 592.0,349.6 L 592.9,350.0 L 593.8,350.4 L 594.7,350.8 L 595.6,351.1 L 596.5,351.5 L 597.4,351.8 L 598.3,352.2 L 599.2,352.5 L 600.1,352.8 L 601.0,353.1 L 601.9,353.4 L 602.8,353.7 L 603.7,354.0 L 604.6,354.3 L 605.5,354.6 L 606.4,354.9 L 607.3,355.2 L 608.2,355.4 L 609.1,355.7 L 610.0,355.9 L 610.9,356.2 L 611.8,356.4 L 612.7,356.6 L 613.6,356.8 L 614.5,357.1 L 615.4,357.3 L 616.3,357.5 L 617.2,357.6 L 618.1,357.8 L 619.0,358.0 L 619.9,358.2 L 620.9,358.3 L 621.8,358.5 L 622.7,358.6 L 623.6,358.8 L 624.5,358.9 L 625.4,359.0 L 626.3,359.1 L 627.2,359.2 L 628.1,359.3 L 629.0,359.4 L 629.9,359.5 L 630.8,359.6 L 631.7,359.7 L 632.6,359.7 L 633.5,359.8 L 634.4,359.9 L 635.3,359.9 L 636.2,359.9 L 637.1,360.0 L 638.0,360.0 L 638.9,360.0 L 639.8,360.0 L 640.7,360.0 L 641.6,360.0 L 642.5,360.0 L 643.4,359.9 L 644.3,359.9 L 645.2,359.9 L 646.1,359.8 L 647.0,359.8 L 647.9,359.7 L 648.8,359.6 L 649.7,359.6 L 650.6,359.5 L 651.5,359.4 L 652.4,359.3 L 653.3,359.2 L 654.2,359.1 L 655.1,359.0 L 656.0,358.8 L 656.9,358.7 L 657.8,358.6 L 658.7,358.4 L 659.6,358.2 L 660.5,358.1 L 661.4,357.9 L 662.3,357.7 L 663.2,357.5 L 664.1,357.4 L 665.0,357.2 L 665.9,356.9 L 666.8,356.7 L 667.7,356.5 L 668.6,356.3 L 669.5,356.0 L 670.4,355.8 L 671.3,355.5 L 672.2,355.3 L 673.1,355.0 L 674.0,354.8 L 674.9,354.5 L 675.8,354.2 L 676.7,353.9 L 677.6,353.6 L 678.5,353.3 L 679.4,353.0 L 680.3,352.6 L 681.2,352.3 L 682.1,352.0 L 683.0,351.6 L 683.9,351.3 L 684.8,350.9 L 685.7,350.6 L 686.6,350.2 L 687.5,349.8 L 688.4,349.4 L 689.3,349.0 L 690.2,348.7 L 691.1,348.2 L 692.0,347.8 L 692.9,347.4 L 693.8,347.0 L 694.7,346.6 L 695.6,346.1 L 696.5,345.7 L 697.4,345.2 L 698.3,344.8 L 699.2,344.3 L 700.2,343.8 L 701.1,343.4 L 702.0,342.9 L 702.9,342.4 L 703.8,341.9 L 704.7,341.4 L 705.6,340.9 L 706.5,340.4 L 707.4,339.9 L 708.3,339.3 L 709.2,338.8 L 710.1,338.3 L 711.0,337.7 L 711.9,337.2 L 712.8,336.6 L 713.7,336.0 L 714.6,335.5 L 715.5,334.9 L 716.4,334.3 L 717.3,333.7 L 718.2,333.1 L 719.1,332.5 L 720.0,331.9 L 720.9,331.3 L 721.8,330.7 L 722.7,330.1 L 723.6,329.5 L 724.5,328.8 L 725.4,328.2 L 726.3,327.6 L 727.2,326.9 L 728.1,326.3 L 729.0,325.6 L 729.9,324.9 L 730.8,324.3 L 731.7,323.6 L 732.6,322.9 L 733.5,322.2 L 734.4,321.5 L 735.3,320.8 L 736.2,320.1 L 737.1,319.4 L 738.0,318.7 L 738.9,318.0 L 739.8,317.3 L 740.7,316.6 L 741.6,315.8 L 742.5,315.1 L 743.4,314.4 L 744.3,313.6 L 745.2,312.9 L 746.1,312.1 L 747.0,311.4 L 747.9,310.6 L 748.8,309.8 L 749.7,309.1 L 750.6,308.3 L 751.5,307.5 L 752.4,306.7 L 753.3,306.0 L 754.2,305.2 L 755.1,304.4 L 756.0,303.6 L 756.9,302.8 L 757.8,302.0 L 758.7,301.2 L 759.6,300.3 L 760.5,299.5 L 761.4,298.7 L 762.3,297.9 L 763.2,297.0 L 764.1,296.2 L 765.0,295.4 L 765.9,294.5 L 766.8,293.7 L 767.7,292.9 L 768.6,292.0 L 769.5,291.2 L 770.4,290.3 L 771.3,289.4 L 772.2,288.6 L 773.1,287.7 L 774.0,286.8 L 774.9,286.0 L 775.8,285.1 L 776.7,284.2 L 777.6,283.3 L 778.5,282.5 L 779.4,281.6 L 780.4,280.7 L 781.3,279.8 L 782.2,278.9 L 783.1,278.0 L 784.0,277.1 L 784.9,276.2 L 785.8,275.3 L 786.7,274.4 L 787.6,273.5 L 788.5,272.6 L 789.4,271.7 L 790.3,270.8 L 791.2,269.9 L 792.1,269.0 L 793.0,268.0 L 793.9,267.1 L 794.8,266.2 L 795.7,265.3 L 796.6,264.4 L 797.5,263.4 L 798.4,262.5 L 799.3,261.6 L 800.2,260.7 L 801.1,259.7 L 802.0,258.8 L 802.9,257.9 L 803.8,256.9 L 804.7,256.0 L 805.6,255.1 L 806.5,254.1 L 807.4,253.2 L 808.3,252.2 L 809.2,251.3 L 810.1,250.4 L 811.0,249.4 L 811.9,248.5 L 812.8,247.5 L 813.7,246.6 L 814.6,245.7 L 815.5,244.7 L 816.4,243.8 L 817.3,242.8 L 818.2,241.9 L 819.1,240.9 L 820.0,240.0 L 820.0,250.0 L 819.1,250.0 L 818.2,250.0 L 817.3,250.0 L 816.4,250.0 L 815.5,250.0 L 814.6,250.0 L 813.7,250.0 L 812.8,250.0 L 811.9,250.0 L 811.0,250.0 L 810.1,250.0 L 809.2,250.0 L 808.3,250.0 L 807.4,250.0 L 806.5,250.0 L 805.6,250.0 L 804.7,250.0 L 803.8,250.0 L 802.9,250.0 L 802.0,250.0 L 801.1,250.0 L 801.1,270.0 L 800.2,270.0 L 799.3,270.0 L 798.4,270.0 L 797.5,270.0 L 796.6,270.0 L 795.7,270.0 L 794.8,270.0 L 793.9,270.0 L 793.0,270.0 L 792.1,270.0 L 791.2,270.0 L 790.3,270.0 L 789.4,270.0 L 788.5,270.0 L 787.6,270.0 L 786.7,270.0 L 785.8,270.0 L 784.9,270.0 L 784.0,270.0 L 783.1,270.0 L 782.2,270.0 L 781.3,270.0 L 781.3,290.0 L 780.4,290.0 L 779.4,290.0 L 778.5,290.0 L 777.6,290.0 L 776.7,290.0 L 775.8,290.0 L 774.9,290.0 L 774.0,290.0 L 773.1,290.0 L 772.2,290.0 L 771.3,290.0 L 770.4,290.0 L 769.5,290.0 L 768.6,290.0 L 767.7,290.0 L 766.8,290.0 L 765.9,290.0 L 765.0,290.0 L 764.1,290.0 L 763.2,290.0 L 762.3,290.0 L 761.4,290.0 L 760.5,290.0 L 760.5,310.0 L 759.6,310.0 L 758.7,310.0 L 757.8,310.0 L 756.9,310.0 L 756.0,310.0 L 755.1,310.0 L 754.2,310.0 L 753.3,310.0 L 752.4,310.0 L 751.5,310.0 L 750.6,310.0 L 749.7,310.0 L 748.8,310.0 L 747.9,310.0 L 747.0,310.0 L 746.1,310.0 L 745.2,310.0 L 744.3,310.0 L 743.4,310.0 L 742.5,310.0 L 741.6,310.0 L 740.7,310.0 L 739.8,310.0 L 738.9,310.0 L 738.0,310.0 L 737.1,310.0 L 737.1,330.0 L 736.2,330.0 L 735.3,330.0 L 734.4,330.0 L 733.5,330.0 L 732.6,330.0 L 731.7,330.0 L 730.8,330.0 L 729.9,330.0 L 729.0,330.0 L 728.1,330.0 L 727.2,330.0 L 726.3,330.0 L 725.4,330.0 L 724.5,330.0 L 723.6,330.0 L 722.7,330.0 L 721.8,330.0 L 720.9,330.0 L 720.0,330.0 L 719.1,330.0 L 718.2,330.0 L 717.3,330.0 L 716.4,330.0 L 715.5,330.0 L 714.6,330.0 L 713.7,330.0 L 712.8,330.0 L 711.9,330.0 L 711.0,330.0 L 710.1,330.0 L 709.2,330.0 L 708.3,330.0 L 707.4,330.0 L 707.4,350.0 L 706.5,350.0 L 705.6,350.0 L 704.7,350.0 L 703.8,350.0 L 702.9,350.0 L 702.0,350.0 L 701.1,350.0 L 700.2,350.0 L 699.2,350.0 L 698.3,350.0 L 697.4,350.0 L 696.5,350.0 L 695.6,350.0 L 694.7,350.0 L 693.8,350.0 L 692.9,350.0 L 692.0,350.0 L 691.1,350.0 L 690.2,350.0 L 689.3,350.0 L 688.4,350.0 L 687.5,350.0 L 686.6,350.0 L 685.7,350.0 L 684.8,350.0 L 683.9,350.0 L 683.0,350.0 L 682.1,350.0 L 681.2,350.0 L 680.3,350.0 L 679.4,350.0 L 678.5,350.0 L 677.6,350.0 L 676.7,350.0 L 675.8,350.0 L 674.9,350.0 L 674.0,350.0 L 673.1,350.0 L 672.2,350.0 L 671.3,350.0 L 670.4,350.0 L 669.5,350.0 L 668.6,350.0 L 667.7,350.0 L 666.8,350.0 L 665.9,350.0 L 665.0,350.0 L 664.1,350.0 L 663.2,350.0 L 662.3,350.0 L 661.4,350.0 L 660.5,350.0 L 659.6,350.0 L 658.7,350.0 L 657.8,350.0 L 656.9,350.0 L 656.0,350.0 L 655.1,350.0 L 654.2,350.0 L 653.3,350.0 L 652.4,350.0 L 651.5,350.0 L 650.6,350.0 L 649.7,350.0 L 648.8,350.0 L 647.9,350.0 L 647.0,350.0 L 646.1,350.0 L 645.2,350.0 L 644.3,350.0 L 643.4,350.0 L 642.5,350.0 L 641.6,350.0 L 640.7,350.0 L 639.8,350.0 L 638.9,350.0 L 638.0,350.0 L 637.1,350.0 L 636.2,350.0 L 635.3,350.0 L 634.4,350.0 L 633.5,350.0 L 632.6,350.0 L 631.7,350.0 L 630.8,350.0 L 629.9,350.0 L 629.0,350.0 L 628.1,350.0 L 627.2,350.0 L 626.3,350.0 L 625.4,350.0 L 624.5,350.0 L 623.6,350.0 L 622.7,350.0 L 621.8,350.0 L 620.9,350.0 L 619.9,350.0 L 619.0,350.0 L 618.1,350.0 L 617.2,350.0 L 616.3,350.0 L 615.4,350.0 L 614.5,350.0 L 613.6,350.0 L 612.7,350.0 L 611.8,350.0 L 610.9,350.0 L 610.0,350.0 L 609.1,350.0 L 608.2,350.0 L 607.3,350.0 L 606.4,350.0 L 605.5,350.0 L 604.6,350.0 L 603.7,350.0 L 602.8,350.0 L 601.9,350.0 L 601.0,350.0 L 600.1,350.0 L 599.2,350.0 L 598.3,350.0 L 597.4,350.0 L 596.5,350.0 L 595.6,350.0 L 594.7,350.0 L 593.8,350.0 L 592.9,350.0 L 592.0,350.0 L 591.1,350.0 L 590.2,350.0 L 589.3,350.0 L 588.4,350.0 L 587.5,350.0 L 586.6,350.0 L 585.7,350.0 L 584.8,350.0 L 583.9,350.0 L 583.0,350.0 L 582.1,350.0 L 581.2,350.0 L 580.3,350.0 L 579.4,350.0 L 578.5,350.0 L 577.6,350.0 L 576.7,350.0 L 575.8,350.0 L 574.9,350.0 L 574.0,350.0 L 573.1,350.0 L 573.1,330.0 L 572.2,330.0 L 571.3,330.0 L 570.4,330.0 L 569.5,330.0 L 568.6,330.0 L 567.7,330.0 L 566.8,330.0 L 565.9,330.0 L 565.0,330.0 L 564.1,330.0 L 563.2,330.0 L 562.3,330.0 L 561.4,330.0 L 560.5,330.0 L 559.6,330.0 L 558.7,330.0 L 557.8,330.0 L 556.9,330.0 L 556.0,330.0 L 555.1,330.0 L 554.2,330.0 L 553.3,330.0 L 552.4,330.0 L 551.5,330.0 L 550.6,330.0 L 549.7,330.0 L 548.8,330.0 L 547.9,330.0 L 547.0,330.0 L 546.1,330.0 L 545.2,330.0 L 544.3,330.0 L 544.3,310.0 L 543.4,310.0 L 542.5,310.0 L 541.6,310.0 L 540.7,310.0 L 539.7,310.0 L 538.8,310.0 L 537.9,310.0 L 537.0,310.0 L 536.1,310.0 L 535.2,310.0 L 534.3,310.0 L 533.4,310.0 L 532.5,310.0 L 531.6,310.0 L 530.7,310.0 L 529.8,310.0 L 528.9,310.0 L 528.0,310.0 L 527.1,310.0 L 526.2,310.0 L 525.3,310.0 L 524.4,310.0 L 523.5,310.0 L 522.6,310.0 L 521.7,310.0 L 520.8,310.0 L 520.8,290.0 L 519.9,290.0 L 519.0,290.0 L 518.1,290.0 L 517.2,290.0 L 516.3,290.0 L 515.4,290.0 L 514.5,290.0 L 513.6,290.0 L 512.7,290.0 L 511.8,290.0 L 510.9,290.0 L 510.0,290.0 L 509.1,290.0 L 508.2,290.0 L 507.3,290.0 L 506.4,290.0 L 505.5,290.0 L 504.6,290.0 L 503.7,290.0 L 502.8,290.0 L 501.9,290.0 L 501.0,290.0 L 500.1,290.0 L 499.2,290.0 L 499.2,270.0 L 498.3,270.0 L 497.4,270.0 L 496.5,270.0 L 495.6,270.0 L 494.7,270.0 L 493.8,270.0 L 492.9,270.0 L 492.0,270.0 L 491.1,270.0 L 490.2,270.0 L 489.3,270.0 L 488.4,270.0 L 487.5,270.0 L 486.6,270.0 L 485.7,270.0 L 484.8,270.0 L 483.9,270.0 L 483.0,270.0 L 482.1,270.0 L 481.2,270.0 L 480.3,270.0 L 479.4,270.0 L 479.4,250.0 L 478.5,250.0 L 477.6,250.0 L 476.7,250.0 L 475.8,250.0 L 474.9,250.0 L 474.0,250.0 L 473.1,250.0 L 472.2,250.0 L 471.3,250.0 L 470.4,250.0 L 469.5,250.0 L 468.6,250.0 L 467.7,250.0 L 466.8,250.0 L 465.9,250.0 L 465.0,250.0 L 464.1,250.0 L 463.2,250.0 L 462.3,250.0 L 461.4,250.0 L 460.5,250.0 L 460.5,230.0 L 459.5,230.0 L 458.6,230.0 L 457.7,230.0 L 456.8,230.0 L 455.9,230.0 L 455.0,230.0 L 454.1,230.0 L 453.2,230.0 L 452.3,230.0 L 451.4,230.0 L 450.5,230.0 L 449.6,230.0 L 448.7,230.0 L 447.8,230.0 L 446.9,230.0 L 446.0,230.0 L 445.1,230.0 L 444.2,230.0 L 443.3,230.0 L 442.4,230.0 L 441.5,230.0 L 441.5,210.0 L 440.6,210.0 L 439.7,210.0 L 438.8,210.0 L 437.9,210.0 L 437.0,210.0 L 436.1,210.0 L 435.2,210.0 L 434.3,210.0 L 433.4,210.0 L 432.5,210.0 L 431.6,210.0 L 430.7,210.0 L 429.8,210.0 L 428.9,210.0 L 428.0,210.0 L 427.1,210.0 L 426.2,210.0 L 425.3,210.0 L 424.4,210.0 L 423.5,210.0 L 422.6,210.0 L 421.7,210.0 L 421.7,190.0 L 420.8,190.0 L 419.9,190.0 L 419.0,190.0 L 418.1,190.0 L 417.2,190.0 L 416.3,190.0 L 415.4,190.0 L 414.5,190.0 L 413.6,190.0 L 412.7,190.0 L 411.8,190.0 L 410.9,190.0 L 410.0,190.0 L 409.1,190.0 L 408.2,190.0 L 407.3,190.0 L 406.4,190.0 L 405.5,190.0 L 404.6,190.0 L 403.7,190.0 L 402.8,190.0 L 401.9,190.0 L 401.0,190.0 L 400.1,190.0 L 400.1,170.0 L 399.2,170.0 L 398.3,170.0 L 397.4,170.0 L 396.5,170.0 L 395.6,170.0 L 394.7,170.0 L 393.8,170.0 L 392.9,170.0 L 392.0,170.0 L 391.1,170.0 L 390.2,170.0 L 389.3,170.0 L 388.4,170.0 L 387.5,170.0 L 386.6,170.0 L 385.7,170.0 L 384.8,170.0 L 383.9,170.0 L 383.0,170.0 L 382.1,170.0 L 381.2,170.0 L 380.3,170.0 L 379.3,170.0 L 378.4,170.0 L 377.5,170.0 L 376.6,170.0 L 376.6,150.0 L 375.7,150.0 L 374.8,150.0 L 373.9,150.0 L 373.0,150.0 L 372.1,150.0 L 371.2,150.0 L 370.3,150.0 L 369.4,150.0 L 368.5,150.0 L 367.6,150.0 L 366.7,150.0 L 365.8,150.0 L 364.9,150.0 L 364.0,150.0 L 363.1,150.0 L 362.2,150.0 L 361.3,150.0 L 360.4,150.0 L 359.5,150.0 L 358.6,150.0 L 357.7,150.0 L 356.8,150.0 L 355.9,150.0 L 355.0,150.0 L 354.1,150.0 L 353.2,150.0 L 352.3,150.0 L 351.4,150.0 L 350.5,150.0 L 349.6,150.0 L 348.7,150.0 L 347.8,150.0 L 347.8,130.0 L 346.9,130.0 L 346.0,130.0 L 345.1,130.0 L 344.2,130.0 L 343.3,130.0 L 342.4,130.0 L 341.5,130.0 L 340.6,130.0 L 339.7,130.0 L 338.8,130.0 L 337.9,130.0 L 337.0,130.0 L 336.1,130.0 L 335.2,130.0 L 334.3,130.0 L 333.4,130.0 L 332.5,130.0 L 331.6,130.0 L 330.7,130.0 L 329.8,130.0 L 328.9,130.0 L 328.0,130.0 L 327.1,130.0 L 326.2,130.0 L 325.3,130.0 L 324.4,130.0 L 323.5,130.0 L 322.6,130.0 L 321.7,130.0 L 320.8,130.0 L 319.9,130.0 L 319.0,130.0 L 318.1,130.0 L 317.2,130.0 L 316.3,130.0 L 315.4,130.0 L 314.5,130.0 L 313.6,130.0 L 312.7,130.0 L 311.8,130.0 L 310.9,130.0 L 310.0,130.0 L 309.1,130.0 L 308.2,130.0 L 307.3,130.0 L 306.4,130.0 L 305.5,130.0 L 304.6,130.0 L 303.7,130.0 L 302.8,130.0 L 301.9,130.0 L 301.0,130.0 L 300.1,130.0 L 299.1,130.0 L 298.2,130.0 L 297.3,130.0 L 296.4,130.0 L 295.5,130.0 L 294.6,130.0 L 293.7,130.0 L 292.8,130.0 L 291.9,130.0 L 291.0,130.0 L 290.1,130.0 L 289.2,130.0 L 288.3,130.0 L 287.4,130.0 L 286.5,130.0 L 285.6,130.0 L 284.7,130.0 L 283.8,130.0 L 282.9,130.0 L 282.0,130.0 L 281.1,130.0 L 280.2,130.0 L 279.3,130.0 L 278.4,130.0 L 277.5,130.0 L 276.6,130.0 L 275.7,130.0 L 274.8,130.0 L 273.9,130.0 L 273.0,130.0 L 272.1,130.0 L 271.2,130.0 L 270.3,130.0 L 269.4,130.0 L 268.5,130.0 L 267.6,130.0 L 266.7,130.0 L 265.8,130.0 L 264.9,130.0 L 264.0,130.0 L 263.1,130.0 L 262.2,130.0 L 261.3,130.0 L 260.4,130.0 L 259.5,130.0 L 258.6,130.0 L 257.7,130.0 L 256.8,130.0 L 255.9,130.0 L 255.0,130.0 L 254.1,130.0 L 253.2,130.0 L 252.3,130.0 L 251.4,130.0 L 250.5,130.0 L 249.6,130.0 L 248.7,130.0 L 247.8,130.0 L 246.9,130.0 L 246.0,130.0 L 245.1,130.0 L 244.2,130.0 L 243.3,130.0 L 242.4,130.0 L 241.5,130.0 L 240.6,130.0 L 239.7,130.0 L 238.8,130.0 L 237.9,130.0 L 237.0,130.0 L 236.1,130.0 L 235.2,130.0 L 234.3,130.0 L 233.4,130.0 L 232.5,130.0 L 231.6,130.0 L 230.7,130.0 L 229.8,130.0 L 228.9,130.0 L 228.0,130.0 L 227.1,130.0 L 226.2,130.0 L 225.3,130.0 L 224.4,130.0 L 223.5,130.0 L 222.6,130.0 L 221.7,130.0 L 220.8,130.0 L 219.8,130.0 L 218.9,130.0 L 218.0,130.0 L 217.1,130.0 L 216.2,130.0 L 215.3,130.0 L 214.4,130.0 L 213.5,130.0 L 213.5,150.0 L 212.6,150.0 L 211.7,150.0 L 210.8,150.0 L 209.9,150.0 L 209.0,150.0 L 208.1,150.0 L 207.2,150.0 L 206.3,150.0 L 205.4,150.0 L 204.5,150.0 L 203.6,150.0 L 202.7,150.0 L 201.8,150.0 L 200.9,150.0 L 200.0,150.0 L 199.1,150.0 L 198.2,150.0 L 197.3,150.0 L 196.4,150.0 L 195.5,150.0 L 194.6,150.0 L 193.7,150.0 L 192.8,150.0 L 191.9,150.0 L 191.0,150.0 L 190.1,150.0 L 189.2,150.0 L 188.3,150.0 L 187.4,150.0 L 186.5,150.0 L 185.6,150.0 L 184.7,150.0 L 183.8,150.0 L 183.8,170.0 L 182.9,170.0 L 182.0,170.0 L 181.1,170.0 L 180.2,170.0 L 179.3,170.0 L 178.4,170.0 L 177.5,170.0 L 176.6,170.0 L 175.7,170.0 L 174.8,170.0 L 173.9,170.0 L 173.0,170.0 L 172.1,170.0 L 171.2,170.0 L 170.3,170.0 L 169.4,170.0 L 168.5,170.0 L 167.6,170.0 L 166.7,170.0 L 165.8,170.0 L 164.9,170.0 L 164.0,170.0 L 163.1,170.0 L 162.2,170.0 L 161.3,170.0 L 160.4,170.0 L 160.4,190.0 L 159.5,190.0 L 158.6,190.0 L 157.7,190.0 L 156.8,190.0 L 155.9,190.0 L 155.0,190.0 L 154.1,190.0 L 153.2,190.0 L 152.3,190.0 L 151.4,190.0 L 150.5,190.0 L 149.6,190.0 L 148.7,190.0 L 147.8,190.0 L 146.9,190.0 L 146.0,190.0 L 145.1,190.0 L 144.2,190.0 L 143.3,190.0 L 142.4,190.0 L 141.5,190.0 L 140.6,190.0 L 139.6,190.0 L 139.6,210.0 L 138.7,210.0 L 137.8,210.0 L 136.9,210.0 L 136.0,210.0 L 135.1,210.0 L 134.2,210.0 L 133.3,210.0 L 132.4,210.0 L 131.5,210.0 L 130.6,210.0 L 129.7,210.0 L 128.8,210.0 L 127.9,210.0 L 127.0,210.0 L 126.1,210.0 L 125.2,210.0 L 124.3,210.0 L 123.4,210.0 L 122.5,210.0 L 121.6,210.0 L 120.7,210.0 L 119.8,210.0 L 119.8,230.0 L 118.9,230.0 L 118.0,230.0 L 117.1,230.0 L 116.2,230.0 L 115.3,230.0 L 114.4,230.0 L 113.5,230.0 L 112.6,230.0 L 111.7,230.0 L 110.8,230.0 L 109.9,230.0 L 109.0,230.0 L 108.1,230.0 L 107.2,230.0 L 106.3,230.0 L 105.4,230.0 L 104.5,230.0 L 103.6,230.0 L 102.7,230.0 L 101.8,230.0 L 100.9,230.0 L 100.9,250.0 L 100.0,250.0 Z" fill="#E74C3C" opacity="0.25"/>

  <!-- Analog sine wave -->
  <g filter="url(#glowSoft)">
    <path d="M 100.0,240.0 L 100.9,239.1 L 101.8,238.1 L 102.7,237.2 L 103.6,236.2 L 104.5,235.3 L 105.4,234.3 L 106.3,233.4 L 107.2,232.5 L 108.1,231.5 L 109.0,230.6 L 109.9,229.6 L 110.8,228.7 L 111.7,227.8 L 112.6,226.8 L 113.5,225.9 L 114.4,224.9 L 115.3,224.0 L 116.2,223.1 L 117.1,222.1 L 118.0,221.2 L 118.9,220.3 L 119.8,219.3 L 120.7,218.4 L 121.6,217.5 L 122.5,216.6 L 123.4,215.6 L 124.3,214.7 L 125.2,213.8 L 126.1,212.9 L 127.0,212.0 L 127.9,211.0 L 128.8,210.1 L 129.7,209.2 L 130.6,208.3 L 131.5,207.4 L 132.4,206.5 L 133.3,205.6 L 134.2,204.7 L 135.1,203.8 L 136.0,202.9 L 136.9,202.0 L 137.8,201.1 L 138.7,200.2 L 139.6,199.3 L 140.6,198.4 L 141.5,197.5 L 142.4,196.7 L 143.3,195.8 L 144.2,194.9 L 145.1,194.0 L 146.0,193.2 L 146.9,192.3 L 147.8,191.4 L 148.7,190.6 L 149.6,189.7 L 150.5,188.8 L 151.4,188.0 L 152.3,187.1 L 153.2,186.3 L 154.1,185.5 L 155.0,184.6 L 155.9,183.8 L 156.8,183.0 L 157.7,182.1 L 158.6,181.3 L 159.5,180.5 L 160.4,179.7 L 161.3,178.8 L 162.2,178.0 L 163.1,177.2 L 164.0,176.4 L 164.9,175.6 L 165.8,174.8 L 166.7,174.0 L 167.6,173.3 L 168.5,172.5 L 169.4,171.7 L 170.3,170.9 L 171.2,170.2 L 172.1,169.4 L 173.0,168.6 L 173.9,167.9 L 174.8,167.1 L 175.7,166.4 L 176.6,165.6 L 177.5,164.9 L 178.4,164.2 L 179.3,163.4 L 180.2,162.7 L 181.1,162.0 L 182.0,161.3 L 182.9,160.6 L 183.8,159.9 L 184.7,159.2 L 185.6,158.5 L 186.5,157.8 L 187.4,157.1 L 188.3,156.4 L 189.2,155.7 L 190.1,155.1 L 191.0,154.4 L 191.9,153.7 L 192.8,153.1 L 193.7,152.4 L 194.6,151.8 L 195.5,151.2 L 196.4,150.5 L 197.3,149.9 L 198.2,149.3 L 199.1,148.7 L 200.0,148.1 L 200.9,147.5 L 201.8,146.9 L 202.7,146.3 L 203.6,145.7 L 204.5,145.1 L 205.4,144.5 L 206.3,144.0 L 207.2,143.4 L 208.1,142.8 L 209.0,142.3 L 209.9,141.7 L 210.8,141.2 L 211.7,140.7 L 212.6,140.1 L 213.5,139.6 L 214.4,139.1 L 215.3,138.6 L 216.2,138.1 L 217.1,137.6 L 218.0,137.1 L 218.9,136.6 L 219.8,136.2 L 220.8,135.7 L 221.7,135.2 L 222.6,134.8 L 223.5,134.3 L 224.4,133.9 L 225.3,133.4 L 226.2,133.0 L 227.1,132.6 L 228.0,132.2 L 228.9,131.8 L 229.8,131.3 L 230.7,131.0 L 231.6,130.6 L 232.5,130.2 L 233.4,129.8 L 234.3,129.4 L 235.2,129.1 L 236.1,128.7 L 237.0,128.4 L 237.9,128.0 L 238.8,127.7 L 239.7,127.4 L 240.6,127.0 L 241.5,126.7 L 242.4,126.4 L 243.3,126.1 L 244.2,125.8 L 245.1,125.5 L 246.0,125.2 L 246.9,125.0 L 247.8,124.7 L 248.7,124.5 L 249.6,124.2 L 250.5,124.0 L 251.4,123.7 L 252.3,123.5 L 253.2,123.3 L 254.1,123.1 L 255.0,122.8 L 255.9,122.6 L 256.8,122.5 L 257.7,122.3 L 258.6,122.1 L 259.5,121.9 L 260.4,121.8 L 261.3,121.6 L 262.2,121.4 L 263.1,121.3 L 264.0,121.2 L 264.9,121.0 L 265.8,120.9 L 266.7,120.8 L 267.6,120.7 L 268.5,120.6 L 269.4,120.5 L 270.3,120.4 L 271.2,120.4 L 272.1,120.3 L 273.0,120.2 L 273.9,120.2 L 274.8,120.1 L 275.7,120.1 L 276.6,120.1 L 277.5,120.0 L 278.4,120.0 L 279.3,120.0 L 280.2,120.0 L 281.1,120.0 L 282.0,120.0 L 282.9,120.0 L 283.8,120.1 L 284.7,120.1 L 285.6,120.1 L 286.5,120.2 L 287.4,120.3 L 288.3,120.3 L 289.2,120.4 L 290.1,120.5 L 291.0,120.6 L 291.9,120.7 L 292.8,120.8 L 293.7,120.9 L 294.6,121.0 L 295.5,121.1 L 296.4,121.2 L 297.3,121.4 L 298.2,121.5 L 299.1,121.7 L 300.1,121.8 L 301.0,122.0 L 301.9,122.2 L 302.8,122.4 L 303.7,122.5 L 304.6,122.7 L 305.5,122.9 L 306.4,123.2 L 307.3,123.4 L 308.2,123.6 L 309.1,123.8 L 310.0,124.1 L 310.9,124.3 L 311.8,124.6 L 312.7,124.8 L 313.6,125.1 L 314.5,125.4 L 315.4,125.7 L 316.3,126.0 L 317.2,126.3 L 318.1,126.6 L 319.0,126.9 L 319.9,127.2 L 320.8,127.5 L 321.7,127.8 L 322.6,128.2 L 323.5,128.5 L 324.4,128.9 L 325.3,129.2 L 326.2,129.6 L 327.1,130.0 L 328.0,130.4 L 328.9,130.8 L 329.8,131.1 L 330.7,131.5 L 331.6,132.0 L 332.5,132.4 L 333.4,132.8 L 334.3,133.2 L 335.2,133.7 L 336.1,134.1 L 337.0,134.5 L 337.9,135.0 L 338.8,135.5 L 339.7,135.9 L 340.6,136.4 L 341.5,136.9 L 342.4,137.4 L 343.3,137.8 L 344.2,138.3 L 345.1,138.9 L 346.0,139.4 L 346.9,139.9 L 347.8,140.4 L 348.7,140.9 L 349.6,141.5 L 350.5,142.0 L 351.4,142.6 L 352.3,143.1 L 353.2,143.7 L 354.1,144.2 L 355.0,144.8 L 355.9,145.4 L 356.8,146.0 L 357.7,146.6 L 358.6,147.2 L 359.5,147.8 L 360.4,148.4 L 361.3,149.0 L 362.2,149.6 L 363.1,150.2 L 364.0,150.8 L 364.9,151.5 L 365.8,152.1 L 366.7,152.8 L 367.6,153.4 L 368.5,154.1 L 369.4,154.7 L 370.3,155.4 L 371.2,156.1 L 372.1,156.7 L 373.0,157.4 L 373.9,158.1 L 374.8,158.8 L 375.7,159.5 L 376.6,160.2 L 377.5,160.9 L 378.4,161.6 L 379.3,162.3 L 380.3,163.1 L 381.2,163.8 L 382.1,164.5 L 383.0,165.3 L 383.9,166.0 L 384.8,166.7 L 385.7,167.5 L 386.6,168.2 L 387.5,169.0 L 388.4,169.8 L 389.3,170.5 L 390.2,171.3 L 391.1,172.1 L 392.0,172.9 L 392.9,173.7 L 393.8,174.4 L 394.7,175.2 L 395.6,176.0 L 396.5,176.8 L 397.4,177.6 L 398.3,178.4 L 399.2,179.3 L 400.1,180.1 L 401.0,180.9 L 401.9,181.7 L 402.8,182.5 L 403.7,183.4 L 404.6,184.2 L 405.5,185.0 L 406.4,185.9 L 407.3,186.7 L 408.2,187.6 L 409.1,188.4 L 410.0,189.3 L 410.9,190.1 L 411.8,191.0 L 412.7,191.9 L 413.6,192.7 L 414.5,193.6 L 415.4,194.5 L 416.3,195.3 L 417.2,196.2 L 418.1,197.1 L 419.0,198.0 L 419.9,198.9 L 420.8,199.7 L 421.7,200.6 L 422.6,201.5 L 423.5,202.4 L 424.4,203.3 L 425.3,204.2 L 426.2,205.1 L 427.1,206.0 L 428.0,206.9 L 428.9,207.8 L 429.8,208.8 L 430.7,209.7 L 431.6,210.6 L 432.5,211.5 L 433.4,212.4 L 434.3,213.3 L 435.2,214.3 L 436.1,215.2 L 437.0,216.1 L 437.9,217.0 L 438.8,218.0 L 439.7,218.9 L 440.6,219.8 L 441.5,220.7 L 442.4,221.7 L 443.3,222.6 L 444.2,223.5 L 445.1,224.5 L 446.0,225.4 L 446.9,226.3 L 447.8,227.3 L 448.7,228.2 L 449.6,229.2 L 450.5,230.1 L 451.4,231.0 L 452.3,232.0 L 453.2,232.9 L 454.1,233.9 L 455.0,234.8 L 455.9,235.8 L 456.8,236.7 L 457.7,237.6 L 458.6,238.6 L 459.5,239.5 L 460.5,240.5 L 461.4,241.4 L 462.3,242.4 L 463.2,243.3 L 464.1,244.2 L 465.0,245.2 L 465.9,246.1 L 466.8,247.1 L 467.7,248.0 L 468.6,249.0 L 469.5,249.9 L 470.4,250.8 L 471.3,251.8 L 472.2,252.7 L 473.1,253.7 L 474.0,254.6 L 474.9,255.5 L 475.8,256.5 L 476.7,257.4 L 477.6,258.3 L 478.5,259.3 L 479.4,260.2 L 480.3,261.1 L 481.2,262.0 L 482.1,263.0 L 483.0,263.9 L 483.9,264.8 L 484.8,265.7 L 485.7,266.7 L 486.6,267.6 L 487.5,268.5 L 488.4,269.4 L 489.3,270.3 L 490.2,271.2 L 491.1,272.2 L 492.0,273.1 L 492.9,274.0 L 493.8,274.9 L 494.7,275.8 L 495.6,276.7 L 496.5,277.6 L 497.4,278.5 L 498.3,279.4 L 499.2,280.3 L 500.1,281.1 L 501.0,282.0 L 501.9,282.9 L 502.8,283.8 L 503.7,284.7 L 504.6,285.5 L 505.5,286.4 L 506.4,287.3 L 507.3,288.1 L 508.2,289.0 L 509.1,289.9 L 510.0,290.7 L 510.9,291.6 L 511.8,292.4 L 512.7,293.3 L 513.6,294.1 L 514.5,295.0 L 515.4,295.8 L 516.3,296.6 L 517.2,297.5 L 518.1,298.3 L 519.0,299.1 L 519.9,299.9 L 520.8,300.7 L 521.7,301.6 L 522.6,302.4 L 523.5,303.2 L 524.4,304.0 L 525.3,304.8 L 526.2,305.6 L 527.1,306.3 L 528.0,307.1 L 528.9,307.9 L 529.8,308.7 L 530.7,309.5 L 531.6,310.2 L 532.5,311.0 L 533.4,311.8 L 534.3,312.5 L 535.2,313.3 L 536.1,314.0 L 537.0,314.7 L 537.9,315.5 L 538.8,316.2 L 539.7,316.9 L 540.7,317.7 L 541.6,318.4 L 542.5,319.1 L 543.4,319.8 L 544.3,320.5 L 545.2,321.2 L 546.1,321.9 L 547.0,322.6 L 547.9,323.3 L 548.8,323.9 L 549.7,324.6 L 550.6,325.3 L 551.5,325.9 L 552.4,326.6 L 553.3,327.2 L 554.2,327.9 L 555.1,328.5 L 556.0,329.2 L 556.9,329.8 L 557.8,330.4 L 558.7,331.0 L 559.6,331.6 L 560.5,332.2 L 561.4,332.8 L 562.3,333.4 L 563.2,334.0 L 564.1,334.6 L 565.0,335.2 L 565.9,335.8 L 566.8,336.3 L 567.7,336.9 L 568.6,337.4 L 569.5,338.0 L 570.4,338.5 L 571.3,339.1 L 572.2,339.6 L 573.1,340.1 L 574.0,340.6 L 574.9,341.1 L 575.8,341.7 L 576.7,342.2 L 577.6,342.6 L 578.5,343.1 L 579.4,343.6 L 580.3,344.1 L 581.2,344.5 L 582.1,345.0 L 583.0,345.5 L 583.9,345.9 L 584.8,346.3 L 585.7,346.8 L 586.6,347.2 L 587.5,347.6 L 588.4,348.0 L 589.3,348.5 L 590.2,348.9 L 591.1,349.2 L 592.0,349.6 L 592.9,350.0 L 593.8,350.4 L 594.7,350.8 L 595.6,351.1 L 596.5,351.5 L 597.4,351.8 L 598.3,352.2 L 599.2,352.5 L 600.1,352.8 L 601.0,353.1 L 601.9,353.4 L 602.8,353.7 L 603.7,354.0 L 604.6,354.3 L 605.5,354.6 L 606.4,354.9 L 607.3,355.2 L 608.2,355.4 L 609.1,355.7 L 610.0,355.9 L 610.9,356.2 L 611.8,356.4 L 612.7,356.6 L 613.6,356.8 L 614.5,357.1 L 615.4,357.3 L 616.3,357.5 L 617.2,357.6 L 618.1,357.8 L 619.0,358.0 L 619.9,358.2 L 620.9,358.3 L 621.8,358.5 L 622.7,358.6 L 623.6,358.8 L 624.5,358.9 L 625.4,359.0 L 626.3,359.1 L 627.2,359.2 L 628.1,359.3 L 629.0,359.4 L 629.9,359.5 L 630.8,359.6 L 631.7,359.7 L 632.6,359.7 L 633.5,359.8 L 634.4,359.9 L 635.3,359.9 L 636.2,359.9 L 637.1,360.0 L 638.0,360.0 L 638.9,360.0 L 639.8,360.0 L 640.7,360.0 L 641.6,360.0 L 642.5,360.0 L 643.4,359.9 L 644.3,359.9 L 645.2,359.9 L 646.1,359.8 L 647.0,359.8 L 647.9,359.7 L 648.8,359.6 L 649.7,359.6 L 650.6,359.5 L 651.5,359.4 L 652.4,359.3 L 653.3,359.2 L 654.2,359.1 L 655.1,359.0 L 656.0,358.8 L 656.9,358.7 L 657.8,358.6 L 658.7,358.4 L 659.6,358.2 L 660.5,358.1 L 661.4,357.9 L 662.3,357.7 L 663.2,357.5 L 664.1,357.4 L 665.0,357.2 L 665.9,356.9 L 666.8,356.7 L 667.7,356.5 L 668.6,356.3 L 669.5,356.0 L 670.4,355.8 L 671.3,355.5 L 672.2,355.3 L 673.1,355.0 L 674.0,354.8 L 674.9,354.5 L 675.8,354.2 L 676.7,353.9 L 677.6,353.6 L 678.5,353.3 L 679.4,353.0 L 680.3,352.6 L 681.2,352.3 L 682.1,352.0 L 683.0,351.6 L 683.9,351.3 L 684.8,350.9 L 685.7,350.6 L 686.6,350.2 L 687.5,349.8 L 688.4,349.4 L 689.3,349.0 L 690.2,348.7 L 691.1,348.2 L 692.0,347.8 L 692.9,347.4 L 693.8,347.0 L 694.7,346.6 L 695.6,346.1 L 696.5,345.7 L 697.4,345.2 L 698.3,344.8 L 699.2,344.3 L 700.2,343.8 L 701.1,343.4 L 702.0,342.9 L 702.9,342.4 L 703.8,341.9 L 704.7,341.4 L 705.6,340.9 L 706.5,340.4 L 707.4,339.9 L 708.3,339.3 L 709.2,338.8 L 710.1,338.3 L 711.0,337.7 L 711.9,337.2 L 712.8,336.6 L 713.7,336.0 L 714.6,335.5 L 715.5,334.9 L 716.4,334.3 L 717.3,333.7 L 718.2,333.1 L 719.1,332.5 L 720.0,331.9 L 720.9,331.3 L 721.8,330.7 L 722.7,330.1 L 723.6,329.5 L 724.5,328.8 L 725.4,328.2 L 726.3,327.6 L 727.2,326.9 L 728.1,326.3 L 729.0,325.6 L 729.9,324.9 L 730.8,324.3 L 731.7,323.6 L 732.6,322.9 L 733.5,322.2 L 734.4,321.5 L 735.3,320.8 L 736.2,320.1 L 737.1,319.4 L 738.0,318.7 L 738.9,318.0 L 739.8,317.3 L 740.7,316.6 L 741.6,315.8 L 742.5,315.1 L 743.4,314.4 L 744.3,313.6 L 745.2,312.9 L 746.1,312.1 L 747.0,311.4 L 747.9,310.6 L 748.8,309.8 L 749.7,309.1 L 750.6,308.3 L 751.5,307.5 L 752.4,306.7 L 753.3,306.0 L 754.2,305.2 L 755.1,304.4 L 756.0,303.6 L 756.9,302.8 L 757.8,302.0 L 758.7,301.2 L 759.6,300.3 L 760.5,299.5 L 761.4,298.7 L 762.3,297.9 L 763.2,297.0 L 764.1,296.2 L 765.0,295.4 L 765.9,294.5 L 766.8,293.7 L 767.7,292.9 L 768.6,292.0 L 769.5,291.2 L 770.4,290.3 L 771.3,289.4 L 772.2,288.6 L 773.1,287.7 L 774.0,286.8 L 774.9,286.0 L 775.8,285.1 L 776.7,284.2 L 777.6,283.3 L 778.5,282.5 L 779.4,281.6 L 780.4,280.7 L 781.3,279.8 L 782.2,278.9 L 783.1,278.0 L 784.0,277.1 L 784.9,276.2 L 785.8,275.3 L 786.7,274.4 L 787.6,273.5 L 788.5,272.6 L 789.4,271.7 L 790.3,270.8 L 791.2,269.9 L 792.1,269.0 L 793.0,268.0 L 793.9,267.1 L 794.8,266.2 L 795.7,265.3 L 796.6,264.4 L 797.5,263.4 L 798.4,262.5 L 799.3,261.6 L 800.2,260.7 L 801.1,259.7 L 802.0,258.8 L 802.9,257.9 L 803.8,256.9 L 804.7,256.0 L 805.6,255.1 L 806.5,254.1 L 807.4,253.2 L 808.3,252.2 L 809.2,251.3 L 810.1,250.4 L 811.0,249.4 L 811.9,248.5 L 812.8,247.5 L 813.7,246.6 L 814.6,245.7 L 815.5,244.7 L 816.4,243.8 L 817.3,242.8 L 818.2,241.9 L 819.1,240.9 L 820.0,240.0"
          fill="none" stroke="#00CEC9" stroke-width="2" opacity="0.4"/>
  </g>

  <!-- Quantized staircase -->
  <g filter="url(#glowSoft)">
    <path d="M 100.0,250.0 L 100.9,250.0 L 100.9,230.0 L 119.8,230.0 L 119.8,210.0 L 139.6,210.0 L 139.6,190.0 L 160.4,190.0 L 160.4,170.0 L 183.8,170.0 L 183.8,150.0 L 213.5,150.0 L 213.5,130.0 L 347.8,130.0 L 347.8,150.0 L 376.6,150.0 L 376.6,170.0 L 400.1,170.0 L 400.1,190.0 L 421.7,190.0 L 421.7,210.0 L 441.5,210.0 L 441.5,230.0 L 460.5,230.0 L 460.5,250.0 L 479.4,250.0 L 479.4,270.0 L 499.2,270.0 L 499.2,290.0 L 520.8,290.0 L 520.8,310.0 L 544.3,310.0 L 544.3,330.0 L 573.1,330.0 L 573.1,350.0 L 707.4,350.0 L 707.4,330.0 L 737.1,330.0 L 737.1,310.0 L 760.5,310.0 L 760.5,290.0 L 781.3,290.0 L 781.3,270.0 L 801.1,270.0 L 801.1,250.0 L 820.0,250.0"
          fill="none" stroke="#a29bfe" stroke-width="2.2" opacity="0.9"/>
  </g>





  <!-- LEGEND -->
  <g transform="translate(80, 410)">
    <line x1="0" y1="10" x2="40" y2="10" stroke="#00CEC9" stroke-width="2" opacity="0.4"/>
    <text x="50" y="14" fill="#00CEC9" font-family="Segoe UI, Arial, sans-serif" font-size="12" opacity="0.7">Analog signal (continuous)</text>

    <line x1="0" y1="35" x2="40" y2="35" stroke="#a29bfe" stroke-width="2.2" opacity="0.9"/>
    <text x="50" y="39" fill="#a29bfe" font-family="Segoe UI, Arial, sans-serif" font-size="12">Quantized output (snapped to nearest level)</text>

    <rect x="5" y="50" width="30" height="12" fill="#E74C3C" opacity="0.35" rx="2"/>
    <text x="50" y="61" fill="#E74C3C" font-family="Segoe UI, Arial, sans-serif" font-size="12" opacity="0.7">Quantization error (rounding difference)</text>
  </g>

  <!-- BIT DEPTH INFO BOX -->
  <g transform="translate(530, 405)">
    <rect x="0" y="0" width="310" height="82" rx="8" fill="#1a1a1e" stroke="#2a2a3a" stroke-width="0.8"/>
    
    <text x="155" y="20" text-anchor="middle" fill="#d4a050" font-family="Segoe UI, Arial, sans-serif" font-size="11" font-weight="bold" letter-spacing="0.5">BIT DEPTH → QUANTIZATION LEVELS</text>
    
    <text x="20" y="42" fill="#6c7a89" font-family="Courier New, monospace" font-size="11"> 4-bit  →</text>
    <text x="120" y="42" fill="#a29bfe" font-family="Courier New, monospace" font-size="11" font-weight="bold">16 levels</text>
    <text x="225" y="42" fill="#6c7a89" font-family="Segoe UI, Arial, sans-serif" font-size="10">(~shown here)</text>

    <text x="20" y="58" fill="#6c7a89" font-family="Courier New, monospace" font-size="11">16-bit  →</text>
    <text x="120" y="58" fill="#55efc4" font-family="Courier New, monospace" font-size="11" font-weight="bold">65,536 levels</text>
    <text x="240" y="58" fill="#6c7a89" font-family="Segoe UI, Arial, sans-serif" font-size="10">~96 dB</text>

    <text x="20" y="74" fill="#6c7a89" font-family="Courier New, monospace" font-size="11">24-bit  →</text>
    <text x="120" y="74" fill="#55efc4" font-family="Courier New, monospace" font-size="11" font-weight="bold">16,777,216 levels</text>
    <text x="268" y="74" fill="#6c7a89" font-family="Segoe UI, Arial, sans-serif" font-size="10">~144 dB</text>
  </g>

  <!-- Bottom legend -->
  <text x="450" y="530" text-anchor="middle" fill="#6c7a89" font-family="Segoe UI, Arial, sans-serif" font-size="11">More bits = finer grid = less error — at 16-bit the staircase becomes imperceptibly smooth</text>
</svg>